<?xml version="1.0" encoding="UTF-8"?>
<svg width="62px" height="62px" viewBox="0 0 62 62" version="1.1" xmlns="http://www.w3.org/2000/svg" xmlns:xlink="http://www.w3.org/1999/xlink">
    <!-- Generator: Sketch 57.1 (83088) - https://sketch.com -->
    <title>UI / Icons / Creativity</title>
    <desc>Created with Sketch.</desc>
    <g id="Mika_Web" stroke="none" stroke-width="1" fill="none" fill-rule="evenodd">
        <g id="Skill---Section-Copy" transform="translate(-298.000000, -2446.000000)" fill="#1CC0D6">
            <g id="About-Me---Section" transform="translate(251.000000, 2052.000000)">
                <g id="Group-5" transform="translate(0.000000, 236.000000)">
                    <g id="Group-6-Copy" transform="translate(47.000000, 158.000000)">
                        <g id="Group-2">
                            <g id="UI-/-Icons-/-Puzzle">
                                <g id="puzzle-svgrepo-com">
                                    <path d="M59.8011751,0.0984126984 L1.39901749,0.0984126984 C0.623656942,0.0984126984 0.0984126984,0.623656942 0.0984126984,1.39901749 L0.0984126984,59.8011751 C0.0984126984,60.5765357 0.623656942,61.1017799 1.39901749,61.1017799 L30.6000963,61.1017799 C31.3754568,61.1017799 31.9007011,60.5765357 31.9007011,59.9387391 L31.9007011,48.5209297 C31.9007011,47.7455691 31.3754568,47.2203249 30.6000963,47.2203249 L28.1364507,47.2203249 C27.6112064,47.2203249 27.2235262,47.482947 26.9734099,47.8706273 C26.0604853,49.5589123 24.3722003,50.4718369 22.558857,50.4718369 C19.7075311,50.4718369 17.3689437,48.1332494 17.3689437,45.2819235 C17.3689437,42.4305976 19.7075311,40.0920101 22.558857,40.0920101 C24.3722003,40.0920101 26.0604853,41.0049347 26.9734099,42.6932197 C27.236032,43.0809 27.6237122,43.3435221 28.1364507,43.3435221 L30.6000963,43.3435221 C31.3754568,43.3435221 31.9007011,42.8182779 31.9007011,42.0429173 L31.9007011,31.9132069 L40.7298067,31.9132069 L40.7298067,32.5635093 C38.6413356,33.9766664 37.4782947,36.3152539 37.4782947,38.7788995 C37.4782947,43.0558884 40.979923,46.5700225 45.2694177,46.5700225 C49.5589123,46.5700225 53.0605406,43.0683942 52.9229767,38.6538414 C52.9229767,36.1901958 51.7599358,33.8516083 49.6839705,32.4259453 L49.6839705,31.9007011 L59.8136809,31.9007011 C60.5890415,31.9007011 61.1142857,31.3754568 61.1142857,30.6000963 L61.1142857,1.39901749 C61.1017799,0.623656942 60.5765357,0.0984126984 59.8011751,0.0984126984 Z M29.2994915,2.69962229 L29.2994915,12.6917687 C29.2994915,13.4671293 29.8247357,13.9923735 30.6000963,13.9923735 L33.0637419,13.9923735 C33.5889862,13.9923735 33.9766664,13.7297514 34.2267827,13.3420711 C35.1397073,11.6537861 36.8279923,10.7408615 38.6413356,10.7408615 C41.4926615,10.7408615 43.8312489,13.079449 43.8312489,15.9307749 C43.8312489,18.7821008 41.4926615,21.1206883 38.6413356,21.1206883 C36.8279923,21.1206883 35.1397073,20.2077638 34.2267827,18.5194787 C33.9641606,18.1317984 33.5764803,17.8691763 33.0637419,17.8691763 L30.6000963,17.8691763 C29.8247357,17.8691763 29.2994915,18.3944205 29.2994915,19.1697811 L29.2994915,29.2994915 L20.6079498,29.2994915 L20.6079498,28.7742473 C22.6839152,27.3485843 23.846956,25.0099968 23.846956,22.5463512 C23.846956,18.2693624 20.3453277,14.7552283 16.0558331,14.7552283 C11.7663384,14.7552283 8.26471011,18.2568566 8.26471011,22.5463512 C8.26471011,25.0099968 9.42775094,27.3485843 11.5037163,28.7742473 L11.5037163,29.2994915 L2.69962229,29.2994915 L2.69962229,2.69962229 L29.2994915,2.69962229 Z M29.2994915,40.5922428 L28.7742473,40.5922428 C27.3485843,38.5162774 25.0099968,37.3532366 22.5463512,37.3532366 C18.2693624,37.3532366 14.7552283,40.8548649 14.7552283,45.1443595 C14.7552283,49.4213484 18.2568566,52.9354825 22.5463512,52.9354825 C25.0099968,52.9354825 27.3485843,51.7724417 28.7742473,49.6964763 L29.2994915,49.6964763 L29.2994915,58.5255819 L2.69962229,58.5255819 L2.69962229,31.9007011 L12.6917687,31.9007011 C13.4671293,31.9007011 13.9923735,31.3754568 13.9923735,30.6000963 L13.9923735,28.1364507 C13.9923735,27.6112064 13.7297514,27.2235262 13.3420711,26.9734099 C11.6537861,26.0604853 10.7408615,24.3722003 10.7408615,22.558857 C10.7408615,19.7075311 13.079449,17.3689437 15.9307749,17.3689437 C18.7821008,17.3689437 21.1206883,19.7075311 21.1206883,22.558857 C21.1206883,24.3722003 20.2077638,26.0604853 18.5194787,26.9734099 C18.1317984,27.236032 17.8691763,27.6237122 17.8691763,28.1364507 L17.8691763,30.6000963 C17.8691763,31.3754568 18.3944205,31.9007011 19.1697811,31.9007011 L29.2994915,31.9007011 L29.2994915,40.5922428 L29.2994915,40.5922428 Z M58.6381343,29.2994915 L48.5084239,29.2994915 C47.7330633,29.2994915 47.2078191,29.8247357 47.2078191,30.6000963 L47.2078191,33.0637419 C47.2078191,33.5889862 47.4704412,33.9766664 47.8581215,34.2267827 C49.5464065,35.1397073 50.459331,36.8279923 50.459331,38.6413356 C50.459331,41.4926615 48.1207436,43.8312489 45.2694177,43.8312489 C42.4180918,43.8312489 40.0795043,41.4926615 40.0795043,38.6413356 C40.0795043,36.8279923 40.9924288,35.1397073 42.6807139,34.2267827 C43.0683942,33.9641606 43.3310163,33.5764803 43.3310163,33.0637419 L43.3310163,30.6000963 C43.3310163,29.8247357 42.8057721,29.2994915 42.0304115,29.2994915 L31.9007011,29.2994915 L31.9007011,20.6079498 L32.4259453,20.6079498 C33.8516083,22.6839152 36.1901958,23.846956 38.6538414,23.846956 C42.9308302,23.846956 46.4449643,20.3453277 46.4449643,16.0558331 C46.4449643,11.7788442 42.943336,8.26471011 38.6538414,8.26471011 C36.1901958,8.26471011 33.8516083,9.42775094 32.4259453,11.5037163 L31.9007011,11.5037163 L31.9007011,2.69962229 L58.6381343,2.69962229 L58.6381343,29.2994915 L58.6381343,29.2994915 Z" id="Shape" fill-rule="nonzero"></path>
                                </g>
                            </g>
                        </g>
                    </g>
                </g>
            </g>
        </g>
    </g>
</svg>