<?xml version="1.0" encoding="UTF-8"?>
<svg width="42px" height="42px" viewBox="0 0 42 42" version="1.1" xmlns="http://www.w3.org/2000/svg" xmlns:xlink="http://www.w3.org/1999/xlink">
    <!-- Generator: Sketch 57.1 (83088) - https://sketch.com -->
    <title>UI / Icons / Dribbble</title>
    <desc>Created with Sketch.</desc>
    <g id="Symbols" stroke="none" stroke-width="1" fill="none" fill-rule="evenodd">
        <g id="UI-/-Icons-/-White_bg-/-Dribbble" transform="translate(-19.000000, -19.000000)" fill="#1CC0D6">
            <g id="UI-/-Icons-/-Dribbble">
                <g transform="translate(19.000000, 19.000000)">
                    <g id="dribbble-icon">
                        <path d="M0,20.8551724 C0,17.0734206 0.931558841,13.5836829 2.7945931,10.3858759 C4.65766908,7.18806886 7.18811057,4.65766908 10.3858759,2.7945931 C13.5836829,0.931517131 17.0734623,0 20.8551724,0 C24.6369242,0 28.1267037,0.931517131 31.324469,2.7945931 C34.522276,4.65766908 37.0527175,7.18806886 38.9157517,10.3858759 C40.7788277,13.5836829 41.7103448,17.0734206 41.7103448,20.8551724 C41.7103448,24.6369242 40.7788277,28.126662 38.9157517,31.324469 C37.0527175,34.522276 34.522276,37.0526758 31.324469,38.9157517 C28.1267037,40.7788277 24.6369242,41.7103448 20.8551724,41.7103448 C17.0734623,41.7103448 13.5836829,40.7788277 10.3858759,38.9157517 C7.18811057,37.0526758 4.65766908,34.522276 2.7945931,31.324469 C0.931558841,28.126662 0,24.6369242 0,20.8551724 Z M3.46195862,20.8551724 C3.46195862,25.1930483 4.92182069,29.0165105 7.84154483,32.3255172 C9.17627586,29.7116551 11.2896139,27.2229656 14.1815172,24.8593655 C17.0734623,22.4957654 19.8958345,21.0081242 22.6487172,20.3963586 C22.2316138,19.4231311 21.8284416,18.5472139 21.4391172,17.7686069 C16.6563588,19.2980001 11.4842761,20.0626759 5.92286897,20.0626759 C4.8384,20.0626759 4.0320139,20.0487863 3.50366897,20.0209655 C3.50366897,20.132207 3.49674505,20.2712276 3.48281379,20.438069 C3.46892425,20.6049103 3.46195862,20.7439309 3.46195862,20.8551724 Z M4.0041931,16.5590069 C4.61595873,16.6146068 5.51969677,16.6424276 6.71536552,16.6424276 C11.359145,16.6424276 15.7665103,16.0167724 19.9375448,14.7654621 C17.8242485,11.011531 15.5023587,7.88325517 12.9719172,5.38063448 C10.7752002,6.49292425 8.89126908,8.03620701 7.32016552,10.0104828 C5.74910367,11.9847585 4.64377953,14.1676277 4.0041931,16.5590069 Z M10.2190345,34.5778759 C13.3612416,37.0248967 16.9066209,38.2483862 20.8551724,38.2483862 C22.9129106,38.2483862 24.9567175,37.8591036 26.9865931,37.0804966 C26.4304691,32.3255172 25.3460001,27.7234898 23.7331862,23.2743724 C21.1749656,23.8304964 18.5958899,25.2347586 15.9959172,27.4871172 C13.3959863,29.7394759 11.4703448,32.103076 10.2190345,34.5778759 Z M16.6007172,4.04590345 C19.047738,6.57634494 21.3139862,9.73239989 23.3995034,13.5141517 C27.1812553,11.9291586 30.0314483,9.91317252 31.9501241,7.46615172 C28.724538,4.79668966 25.0262069,3.46195862 20.8551724,3.46195862 C19.4370207,3.46195862 18.018869,3.6566208 16.6007172,4.04590345 Z M24.9010759,16.4755862 C25.3181793,17.365393 25.7909244,18.4915723 26.3192276,19.8541241 C28.3769657,19.659462 30.6153931,19.5621517 33.0345931,19.5621517 C34.7586485,19.5621517 36.4687726,19.6038621 38.1649655,19.6872828 C37.9425242,15.9055309 36.5799724,12.5409242 34.0773517,9.59337931 C32.2699174,12.2906622 29.2111726,14.5847311 24.9010759,16.4755862 Z M27.3619862,22.7738483 C28.7801379,26.8892829 29.7394759,31.1159172 30.24,35.4537931 C32.4367587,34.0356414 34.2303036,32.2142758 35.6206345,29.9897379 C37.0110071,27.7652001 37.845214,25.3598897 38.1232552,22.7738483 C36.0933795,22.6348277 34.2441931,22.5652966 32.5757793,22.5652966 C31.0464278,22.5652966 29.3084829,22.6348277 27.3619862,22.7738483 Z" id="Shape"></path>
                    </g>
                </g>
            </g>
        </g>
    </g>
</svg>