<?xml version="1.0" encoding="UTF-8"?>
<svg width="62px" height="56px" viewBox="0 0 62 56" version="1.1" xmlns="http://www.w3.org/2000/svg" xmlns:xlink="http://www.w3.org/1999/xlink">
    <!-- Generator: Sketch 57.1 (83088) - https://sketch.com -->
    <title>UI / Icons / Users</title>
    <desc>Created with Sketch.</desc>
    <g id="Mika_Web" stroke="none" stroke-width="1" fill="none" fill-rule="evenodd">
        <g id="Skill---Section-Copy" transform="translate(-938.000000, -2299.000000)">
            <g id="About-Me---Section" transform="translate(251.000000, 2052.000000)">
                <g id="Group-5" transform="translate(0.000000, 210.000000)">
                    <g id="Group-6" transform="translate(47.000000, 26.000000)">
                        <g id="Group-4" transform="translate(640.000000, 8.000000)">
                            <g id="UI-/-Icons-/-Users">
                                <g id="Group-5">
                                    <rect id="Rectangle" fill-rule="nonzero" x="0" y="0" width="62" height="62"></rect>
                                    <g id="Icon" transform="translate(0.000000, 3.000000)" fill="#1CC0D6" fill-rule="nonzero" stroke="#FFFFFF" stroke-width="2.03072211">
                                        <path d="M45.2763158,1.01536105 C38.4508018,1.01536105 32.9127295,6.61933248 32.9127295,13.5381474 C32.9127295,17.1787296 34.4536467,20.5639837 37.0943379,22.9258988 L37.9739096,23.7126147 L37.064761,24.4649558 C34.9873657,26.1840474 33.2169473,28.5274372 31.9183118,31.2800853 L31.0001287,33.2263087 L30.0817597,31.2801729 C28.7828623,28.5276509 27.0123294,26.1846654 24.9349199,24.4662452 L24.0255814,23.714046 L24.9050779,22.9271623 C27.5463565,20.564016 29.0872705,17.1787376 29.0872705,13.5381474 C29.0872705,6.61933248 23.5491982,1.01536105 16.7236842,1.01536105 C9.89817019,1.01536105 4.36009789,6.61933248 4.36009789,13.5381474 C4.36009789,17.1787296 5.90101509,20.5639837 8.5417063,22.9258988 L9.42127804,23.7126147 L8.5121294,24.4649558 C3.92387594,28.2618394 1.01536105,34.9094821 1.01536105,41.9682568 C1.01536105,49.9135565 22.4790912,52.376656 30.3180757,45.9407045 L30.9704983,45.4050534 L31.6162795,45.9486929 C39.2954033,52.4132269 60.9846389,49.833848 60.9846389,41.9682568 C60.9846389,34.9092099 58.075935,28.2617274 53.4875515,24.4662452 L52.578213,23.714046 L53.4577095,22.9271623 C56.098988,20.564016 57.6399021,17.1787376 57.6399021,13.5381474 C57.6399021,6.61933248 52.1018298,1.01536105 45.2763158,1.01536105 Z M30.9999998,15.4071092 C30.6033614,18.528406 29.2214609,21.4061554 27.0778895,23.6484308 C28.5769156,25.0503313 29.9013134,26.7430628 30.9999085,28.6538908 C32.0983646,26.7428601 33.4226897,25.0498129 34.9216835,23.6474883 C32.7784573,21.4059669 31.3966283,18.5283498 30.9999998,15.4071092 Z" id="Path"></path>
                                        <path d="M29.7763158,5.91009789 C22.9508018,5.91009789 17.4127295,11.5140693 17.4127295,18.4328842 C17.4127295,22.0734664 18.9536467,25.4587206 21.5943379,27.8206356 L22.4739096,28.6073515 L21.564761,29.3596926 C16.9765075,33.1565762 14.0679926,39.8042189 14.0679926,46.8629937 C14.0679926,51.3917762 20.8473815,54.4871033 29.7730206,54.4581361 C38.6701503,54.4292614 45.4846389,51.3031646 45.4846389,46.8629937 C45.4846389,39.8039468 42.575935,33.1564642 37.9875515,29.360982 L37.078213,28.6087829 L37.9577095,27.8218992 C40.598988,25.4587529 42.1399021,22.0734745 42.1399021,18.4328842 C42.1399021,11.5140693 36.6018298,5.91009789 29.7763158,5.91009789 Z" id="Path"></path>
                                    </g>
                                </g>
                            </g>
                        </g>
                    </g>
                </g>
            </g>
        </g>
    </g>
</svg>