<?xml version="1.0" encoding="UTF-8"?>
<svg width="62px" height="62px" viewBox="0 0 62 62" version="1.1" xmlns="http://www.w3.org/2000/svg" xmlns:xlink="http://www.w3.org/1999/xlink">
    <!-- Generator: Sketch 57.1 (83088) - https://sketch.com -->
    <title>UI / Icons / World</title>
    <desc>Created with Sketch.</desc>
    <g id="Mika_Web" stroke="none" stroke-width="1" fill="none" fill-rule="evenodd">
        <g id="Skill---Section-Copy" transform="translate(-938.000000, -2446.000000)" fill="#1CC0D6">
            <g id="About-Me---Section" transform="translate(251.000000, 2052.000000)">
                <g id="Group-5" transform="translate(0.000000, 236.000000)">
                    <g id="Group-6-Copy" transform="translate(47.000000, 158.000000)">
                        <g id="Group-4" transform="translate(640.000000, 0.000000)">
                            <g id="UI-/-Icons-/-World">
                                <g id="world">
                                    <path d="M30.95295,3.30756489e-07 C18.5722847,-0.00180391217 7.38289593,7.37800066 2.50990217,18.7593187 L2.12423897,18.8871857 L2.2737608,19.3357512 C-4.14227246,35.1600589 3.48450092,53.1894269 19.3088086,59.6054601 C23.0047047,61.1040298 26.9555612,61.8732938 30.9437982,61.8711072 C48.0289874,61.8736805 61.8814115,48.0253811 61.8839895,30.9401919 C61.8865675,13.8550027 48.0382681,0.00244972608 30.95295,3.30756489e-07 Z M55.2184094,46.5327408 L53.6298689,44.9452314 L53.6298689,41.2474019 C53.6316735,41.087826 53.5963554,40.9300547 53.5267504,40.7864622 L49.5051288,32.754562 L49.5051288,28.8731815 C49.5051288,28.5285079 49.3330498,28.2065204 49.0462514,28.0152356 L45.9526964,25.9528655 C45.710239,25.7909695 45.4105508,25.7392813 45.1277483,25.810562 L41.3391745,26.7571899 L34.9757317,24.0266119 L34.1002556,17.8931233 L36.526634,15.4677761 L41.7351496,15.4677761 L43.4881641,18.1024539 C43.646451,18.3393686 43.8958689,18.5003624 44.1769957,18.5468946 L50.3641059,19.5780797 C50.5298689,19.6059217 50.6997566,19.5923874 50.8590747,19.5388946 L56.5574032,17.6394518 C61.3368169,26.8111982 60.825607,37.8424289 55.2184094,46.5327408 Z M50.9652868,10.161298 L49.2885799,11.2791025 L44.6142182,10.3438177 L41.581503,9.33428756 C41.3958897,9.27125638 41.1960976,9.26326469 41.0061018,9.31160149 L37.1721558,10.2695724 L35.4913242,9.70963892 L36.7369957,7.21829588 L40.2244635,7.21829588 C40.3844261,7.21842478 40.5421974,7.18143102 40.6854032,7.11002145 L44.2533034,5.32607135 C46.7103596,6.60860773 48.9707171,8.23684889 50.9652868,10.161298 Z M19.6492286,4.3650069 L22.1240726,6.01490295 C22.2457525,6.09585097 22.3831579,6.14998819 22.527266,6.17370544 L27.5243887,7.00690295 L27.0366381,8.46602977 L24.4328959,9.33531875 C24.1997192,9.41291542 24.0018606,9.57120232 23.8750248,9.78182187 L20.9134614,14.7170734 L16.1566049,17.5713936 L9.14454666,18.5726743 C8.63630134,18.6444705 8.25837203,19.0792439 8.25772754,19.5925163 L8.25772754,22.6860713 C8.25772754,22.9595932 8.36651756,23.221772 8.55986475,23.4151192 L10.3200976,25.175352 L10.3200976,26.9469279 L6.03036787,24.0864206 L4.47430966,19.418246 C7.43484188,12.6536722 12.8610664,7.27088632 19.6492286,4.3650069 Z M16.7134448,38.1744705 L12.0524885,37.2412481 L10.3200976,33.785747 L10.3200976,31.3624622 L14.162293,27.5202668 L15.5842972,30.3653063 C15.7589541,30.714878 16.1163887,30.9356805 16.5072078,30.9355516 L23.1418523,30.9355516 L25.9353325,35.591352 C26.1217192,35.9016098 26.4571122,36.0913479 26.8190581,36.0914768 L29.6857525,36.0914768 L28.963923,39.7078427 L25.0598564,43.6119092 C24.8661225,43.8051275 24.7570747,44.0673063 24.756688,44.340957 L24.756688,46.9189196 L21.0444219,49.7031192 C20.7848211,49.8978842 20.6319479,50.2035017 20.6319479,50.5280672 L20.6319479,54.2527075 L19.3491537,53.8278593 L17.5383928,49.2988946 L17.5383928,39.1850318 C17.5385217,38.6949612 17.1935903,38.2724331 16.7134448,38.1744705 Z M13.6137026,54.0264913 C3.89104562,46.7322751 -0.220675791,34.1291316 3.32969427,22.5045828 L4.18660903,25.0742959 C4.25879198,25.291747 4.40135332,25.479036 4.59186475,25.6063874 L9.73232213,29.0330152 L8.55986475,30.2065038 C8.36651756,30.399851 8.25772754,30.6620298 8.25772754,30.9355516 L8.25772754,34.0291067 C8.25759864,34.1890693 8.2945924,34.3468406 8.36600196,34.4900464 L10.428372,38.6147865 C10.5711912,38.8996514 10.8376236,39.102537 11.1502015,39.1644081 L15.4811787,40.0295724 L15.4811787,49.4968822 C15.4810498,49.6278427 15.5059271,49.757772 15.5543928,49.8794518 L17.6167629,55.035377 C17.7296776,55.3170194 17.9609209,55.5347283 18.2488793,55.6303707 L21.3424344,56.6615558 C21.4458107,56.696616 21.5540851,56.7146618 21.6631329,56.7151774 C22.2326049,56.7151774 22.694318,56.2534643 22.694318,55.6839923 L22.694318,51.0436597 L26.4065841,48.2594601 C26.6661849,48.064695 26.8190581,47.7590776 26.8190581,47.4345121 L26.8190581,44.7678676 L30.641661,40.9452647 C30.7853824,40.8012855 30.883345,40.6178634 30.9231745,40.4183291 L31.9543596,35.262404 C32.0659853,34.7038884 31.7037816,34.1607117 31.145266,34.0490859 C31.0788835,34.0358094 31.0114697,34.0291067 30.9437982,34.0291067 L27.4027088,34.0291067 L24.6092286,29.3733063 C24.4228419,29.0630485 24.0874489,28.8733104 23.725503,28.8731815 L17.1444801,28.8731815 L15.3729043,25.3186867 C15.2245425,25.0219632 14.9425134,24.814695 14.6149833,24.7618468 C14.287582,24.7052605 13.9533492,24.8132772 13.7209458,25.0505786 L12.3824677,26.3839009 L12.3824677,24.7484414 C12.3824677,24.4749196 12.2736776,24.2127408 12.0803304,24.0193936 L10.3200976,22.2591607 L10.3200976,20.4865537 L16.6536361,19.5822044 C16.7896236,19.562483 16.9204552,19.5158219 17.0382681,19.4450568 L22.1941932,16.3515017 C22.3388169,16.2646244 22.4599812,16.1434601 22.5468585,15.9988364 L25.4444885,11.1697969 L28.1760976,10.2582294 C28.4845508,10.1570443 28.7266215,9.91510253 28.8278065,9.60652041 L29.8589916,6.51296532 C30.0376444,5.97223767 29.7441433,5.38897363 29.2034157,5.21032083 C29.1535321,5.19382187 29.1023596,5.18118985 29.0505425,5.17242478 L23.0820435,4.17733122 L22.0333284,3.47818777 C28.5224469,1.36606303 35.5507462,1.62746844 41.8650789,4.21548507 L39.9811038,5.15592582 L36.0997234,5.15592582 C35.7069708,5.15373455 35.3472161,5.37492374 35.1716568,5.72617114 L33.1092868,9.85091126 C32.8552286,10.3605745 33.0623679,10.9798011 33.5720311,11.2338593 C33.6154697,11.2555142 33.6603263,11.2740755 33.7063429,11.2894144 L36.799898,12.3205994 C36.9855113,12.3836306 37.1853034,12.3916223 37.3752993,12.3432855 L41.2092452,11.3853146 L44.0181932,12.3205994 C44.0584094,12.335036 44.0997857,12.3461212 44.1419354,12.3535973 L49.2978606,13.3847824 C49.5659687,13.4394352 49.8449043,13.3845246 50.0722806,13.232167 L52.4192577,11.6668281 C53.5743138,12.9533603 54.6123304,14.3403042 55.5210623,15.8111607 L50.4476319,17.5023042 L44.9545092,16.5866119 L43.1396236,13.8642834 C42.9493699,13.5790318 42.6297026,13.4070817 42.2868336,13.4054061 L36.0997234,13.4054061 C35.8262015,13.4054061 35.5640228,13.5141961 35.3706756,13.7075433 L32.2771205,16.8010984 C32.047424,17.0306659 31.9392785,17.3551025 31.9852951,17.6765745 L33.0164801,24.8948697 C33.0684261,25.2517886 33.3030207,25.5556015 33.6351912,25.6961005 L40.8534864,28.7896555 C41.060239,28.8792397 41.2909666,28.8976722 41.5093201,28.842246 L45.1916818,27.9213978 L47.4427587,29.4248655 L47.4427587,32.9979217 C47.4409541,33.1574975 47.4762722,33.3152689 47.5458772,33.4588614 L51.5674988,41.4907616 L51.5674988,45.372142 C51.5674988,45.6456639 51.6762889,45.9078427 51.8696361,46.1011899 L54.0268751,48.2594601 C44.4596693,61.0117387 26.3659812,63.593826 13.6137026,54.0264913 Z" id="Shape" fill-rule="nonzero"></path>
                                </g>
                            </g>
                        </g>
                    </g>
                </g>
            </g>
        </g>
    </g>
</svg>