<?xml version="1.0" encoding="UTF-8"?>
<svg width="56px" height="56px" viewBox="0 0 56 56" version="1.1" xmlns="http://www.w3.org/2000/svg" xmlns:xlink="http://www.w3.org/1999/xlink">
    <!-- Generator: Sketch 57.1 (83088) - https://sketch.com -->
    <title>UI / Icons / White_bg / Css3</title>
    <desc>Created with Sketch.</desc>
    <defs>
        <rect id="path-1" x="0" y="0" width="56" height="56" rx="17.5"></rect>
    </defs>
    <g id="Mika_Web" stroke="none" stroke-width="1" fill="none" fill-rule="evenodd">
        <g id="Skill---Section-Copy" transform="translate(-692.000000, -698.000000)">
            <g id="Landing---Section" transform="translate(0.000000, 145.000000)">
                <g id="Skills" transform="translate(492.000000, 394.000000)">
                    <g id="UI-Skills" transform="translate(136.000000, 159.000000)">
                        <g id="UI-/-Icons-/-White_bg-/-Css3" transform="translate(64.000000, 0.000000)">
                            <g id="ic_halfround_skill_css">
                                <mask id="mask-2" fill="white">
                                    <use xlink:href="#path-1"></use>
                                </mask>
                                <use id="BG" fill="#FFFFFF" xlink:href="#path-1"></use>
                                <g id="Group-4" mask="url(#mask-2)">
                                    <g transform="translate(17.500000, 11.900000)">
                                        <g id="Group-3" stroke-width="1" fill="none" fill-rule="evenodd" transform="translate(0.700000, 0.000000)">
                                            <path d="M4.64128942,3.91334495 L6.37039459,4.44934724 C6.25105721,4.9528399 6.06331418,5.3732976 5.80743642,5.71126214 C5.5514232,6.04936214 5.23350625,6.30442716 4.85395649,6.47632175 C4.47427127,6.64848726 3.99096166,6.73450228 3.4041631,6.73450228 C2.69220252,6.73450228 2.11068678,6.63141971 1.65948041,6.42593185 C1.20813858,6.22003762 0.818971394,5.85823269 0.491301562,5.33997524 C0.163902644,4.82212416 -3.46389584e-14,4.15919892 -3.46389584e-14,3.35160589 C-3.46389584e-14,2.27445397 0.286626442,1.44667788 0.860421154,0.867871274 C1.4338095,0.28920012 2.24560168,3.99680289e-15 3.29484952,3.99680289e-15 C4.1166655,3.99680289e-15 4.7625232,0.168914543 5.23228714,0.506879087 C5.70191562,0.844708173 6.05112308,1.36350745 6.27950312,2.06327692 L4.45937103,2.45704964 C4.39773822,2.25982464 4.33339627,2.11569868 4.26593882,2.02480721 C4.15405156,1.87133474 4.01751118,1.75308101 3.85577584,1.67072332 C3.69417596,1.58823017 3.5137476,1.54718678 3.3146262,1.54718678 C2.86260709,1.54718678 2.51597332,1.72666695 2.27526671,2.0858982 C2.09321286,2.3526125 2.00218594,2.77090288 2.00218594,3.34171755 C2.00218594,4.04798894 2.11529231,4.53197584 2.34218233,4.79422007 C2.56866599,5.0564643 2.88658293,5.1873155 3.29620409,5.1873155 C3.69431142,5.1873155 3.99516082,5.07854375 4.19834591,4.8611357 C4.40166647,4.64359219 4.54944976,4.32757163 4.64128942,3.91334495" id="Path" fill="#1073BB" fill-rule="nonzero"></path>
                                            <path d="M6.91642067,4.48646238 L8.91847115,4.36834411 C8.95748269,4.67569543 9.03672488,4.90935829 9.15606226,5.06973906 C9.35044267,5.3300869 9.62799351,5.46053173 9.98925661,5.46053173 C10.25868,5.46053173 10.4659288,5.392397 10.6114094,5.25653389 C10.7567544,5.12053534 10.8296302,4.96272825 10.8296302,4.78365445 C10.8296302,4.61406262 10.7652882,4.46194471 10.636198,4.32743618 C10.506295,4.19279219 10.1732069,4.06546286 9.63639183,3.94626094 C8.75781947,3.74619135 8.13119663,3.48245709 7.75679423,3.15424543 C7.37846358,2.82616923 7.18950144,2.40842067 7.18950144,1.90127067 C7.18950144,1.56655709 7.28689483,1.25121382 7.48100433,0.954563582 C7.67538474,0.657913341 7.96770036,0.424521394 8.35754483,0.254658654 C8.74766022,0.0852022837 9.28284976,0.000406370192 9.96257163,0.000406370192 C10.795766,0.000406370192 11.4310581,0.157400721 11.8684478,0.471660337 C12.3061085,0.786055409 12.5664564,1.28629712 12.6500332,1.97265637 L10.6478472,2.09348377 C10.6043656,1.7759732 10.5129323,1.54474856 10.3742246,1.40035168 C10.2353815,1.25554844 10.0434393,1.18335 9.79880445,1.18335 C9.59778666,1.18335 9.44634603,1.23333353 9.34461803,1.33343606 C9.24261911,1.43367404 9.19168738,1.55504327 9.19168738,1.69808558 C9.19168738,1.80252272 9.21539231,1.8968006 9.26280216,1.98105469 C9.30831562,2.06747608 9.5081143,2.14780192 9.86260457,2.22284495 C10.7387387,2.41356803 11.3664452,2.60591659 11.7455886,2.80097428 C12.124732,2.99576106 12.4003864,3.23755132 12.5730937,3.52620962 C12.7455302,3.81500337 12.8316806,4.13793221 12.8316806,4.49513161 C12.8316806,4.91437019 12.7161361,5.30069279 12.4846405,5.65477668 C12.2534159,6.00886058 11.9302161,6.27760673 11.5151767,6.46047332 C11.0998663,6.64361082 10.5764615,6.73490865 9.94496226,6.73490865 C8.835978,6.73490865 8.06780288,6.52318978 7.64084327,6.0998875 C7.21388365,5.67644976 6.97249976,5.13868654 6.91642067,4.48646238" id="Path" fill="#1073BB" fill-rule="nonzero"></path>
                                            <path d="M13.4690046,4.48646238 L15.4709196,4.36834411 C15.5097957,4.67569543 15.5889024,4.90935829 15.7083752,5.06973906 C15.9027556,5.3300869 16.1804419,5.46053173 16.5414341,5.46053173 C16.8107221,5.46053173 17.0182418,5.392397 17.1638578,5.25653389 C17.3092029,5.12053534 17.3823495,4.96272825 17.3823495,4.78365445 C17.3823495,4.61406262 17.3176012,4.46194471 17.1887819,4.32743618 C17.0588788,4.19279219 16.7253844,4.06546286 16.1891112,3.94626094 C15.3101325,3.74619135 14.6835096,3.48245709 14.3089718,3.15424543 C13.9307766,2.82616923 13.741679,2.40842067 13.741679,1.90127067 C13.741679,1.56655709 13.8389369,1.25121382 14.0333173,0.954563582 C14.2274268,0.657913341 14.5200133,0.424521394 14.9101287,0.254658654 C15.2999732,0.0852022837 15.8350273,0.000406370192 16.5147492,0.000406370192 C17.3479435,0.000406370192 17.983371,0.157400721 18.4208963,0.471660337 C18.8582861,0.786055409 19.1186339,1.28629712 19.2023462,1.97265637 L17.2001602,2.09348377 C17.1565431,1.7759732 17.0652453,1.54474856 16.9264022,1.40035168 C16.7874236,1.25554844 16.5960232,1.18335 16.3511174,1.18335 C16.1503706,1.18335 15.998659,1.23333353 15.8967956,1.33343606 C15.7950675,1.43367404 15.7440004,1.55504327 15.7440004,1.69808558 C15.7440004,1.80252272 15.7677053,1.8968006 15.8148442,1.98105469 C15.8604931,2.06747608 16.0606982,2.14780192 16.4153239,2.22284495 C17.2913226,2.41356803 17.9187582,2.60591659 18.298037,2.80097428 C18.677045,2.99576106 18.9525639,3.23755132 19.1255422,3.52620962 C19.2978431,3.81500337 19.3841291,4.13793221 19.3841291,4.49513161 C19.3841291,4.91437019 19.268449,5.30069279 19.0372244,5.65477668 C18.8057288,6.00886058 18.4825291,6.27760673 18.0673542,6.46047332 C17.6521793,6.64361082 17.1287745,6.73490865 16.4972752,6.73490865 C15.3881555,6.73490865 14.6205222,6.52318978 14.1930208,6.0998875 C13.7660612,5.67644976 13.5249482,5.13868654 13.4690046,4.48646238" id="Path" fill="#1073BB" fill-rule="nonzero"></path>
                                        </g>
                                        <polyline id="Path" fill="#1073BB" fill-rule="nonzero" points="3.12521853 11.2 2.42016457 14.7051901 16.7694997 14.7051901 16.3216153 16.9693573 1.96274879 16.9693573 1.26722616 20.4745474 15.6165613 20.4745474 14.8162823 24.4726193 9.03261582 26.3767555 4.02089917 24.4726193 4.36393895 22.7388901 0.83858089 22.7388901 0 26.9451885 8.28952478 30.1 17.8462757 26.9451885 19.1135019 20.6166996 19.3707596 19.3474216 21 11.2 3.12521853 11.2"></polyline>
                                    </g>
                                </g>
                            </g>
                        </g>
                    </g>
                </g>
            </g>
        </g>
    </g>
</svg>