<?xml version="1.0" encoding="UTF-8"?>
<svg width="56px" height="56px" viewBox="0 0 56 56" version="1.1" xmlns="http://www.w3.org/2000/svg" xmlns:xlink="http://www.w3.org/1999/xlink">
    <!-- Generator: Sketch 57.1 (83088) - https://sketch.com -->
    <title>UI / Icons / White_bg / Dribbble</title>
    <desc>Created with Sketch.</desc>
    <defs>
        <rect id="path-1" x="0" y="0" width="56" height="56" rx="25"></rect>
    </defs>
    <g id="Mika_Web" stroke="none" stroke-width="1" fill="none" fill-rule="evenodd">
        <g id="Skill---Section-Copy" transform="translate(-580.000000, -2846.000000)">
            <g id="Contact-Me---Section" transform="translate(1.000000, 2544.000000)">
                <g id="Group" transform="translate(411.000000, 94.000000)">
                    <g id="icons" transform="translate(168.000000, 208.000000)">
                        <g id="UI-/-Icons-/-White_bg-/-Dribbble">
                            <g>
                                <g id="ic_halfround_skill_css">
                                    <mask id="mask-2" fill="white">
                                        <use xlink:href="#path-1"></use>
                                    </mask>
                                    <use id="BG" fill="#FFFFFF" xlink:href="#path-1"></use>
                                </g>
                                <g id="dribbble-icon" transform="translate(13.300000, 13.300000)" fill="#1CC0D6">
                                    <path d="M0,14.5986207 C0,11.9513944 0.652091189,9.50857801 1.95621517,7.2701131 C3.26036835,5.0316482 5.0316774,3.26036835 7.2701131,1.95621517 C9.50857801,0.652061992 11.9514236,0 14.5986207,0 C17.245847,0 19.6886926,0.652061992 21.9271283,1.95621517 C24.1655932,3.26036835 25.9369022,5.0316482 27.2410262,7.2701131 C28.5451794,9.50857801 29.1972414,11.9513944 29.1972414,14.5986207 C29.1972414,17.245847 28.5451794,19.6886634 27.2410262,21.9271283 C25.9369022,24.1655932 24.1655932,25.936873 21.9271283,27.2410262 C19.6886926,28.5451794 17.245847,29.1972414 14.5986207,29.1972414 C11.9514236,29.1972414 9.50857801,28.5451794 7.2701131,27.2410262 C5.0316774,25.936873 3.26036835,24.1655932 1.95621517,21.9271283 C0.652091189,19.6886634 0,17.245847 0,14.5986207 Z M2.42337103,14.5986207 C2.42337103,17.6351338 3.44527448,20.3115573 5.48908138,22.6278621 C6.4233931,20.7981585 7.90272973,19.0560759 9.92706207,17.4015559 C11.9514236,15.7470358 13.9270841,14.705687 15.8541021,14.277451 C15.5621297,13.5961918 15.2799091,12.9830497 15.0073821,12.4380248 C11.6594512,13.5086001 8.03899326,14.0438731 4.14600828,14.0438731 C3.38688,14.0438731 2.82240973,14.0341504 2.45256828,14.0146759 C2.45256828,14.0925449 2.44772153,14.1898593 2.43796966,14.3066483 C2.42824697,14.4234372 2.42337103,14.5207516 2.42337103,14.5986207 Z M2.80293517,11.5913048 C3.23117111,11.6302248 3.86378774,11.6496993 4.70075586,11.6496993 C7.95140153,11.6496993 11.0365572,11.2117407 13.9562814,10.3358234 C12.4769739,7.70807172 10.8516511,5.51827862 9.08034207,3.76644414 C7.54264015,4.54504697 6.22388835,5.6253449 5.12411586,7.00733793 C4.02437257,8.38933096 3.25064567,9.91733939 2.80293517,11.5913048 Z M7.15332414,24.2045131 C9.35286912,25.9174277 11.8346346,26.7738703 14.5986207,26.7738703 C16.0390374,26.7738703 17.4697022,26.5013725 18.8906152,25.9563476 C18.5013284,22.6278621 17.7422001,19.4064428 16.6132303,16.2920607 C14.8224759,16.6813475 13.0171229,17.664331 11.1971421,19.2409821 C9.37719042,20.8176331 8.02924138,22.4721532 7.15332414,24.2045131 Z M11.6205021,2.83213241 C13.3334166,4.60344146 14.9197903,6.81267992 16.3796524,9.45990621 C19.0268787,8.35041103 21.0220138,6.93922077 22.3650869,5.22630621 C20.1071766,3.35768276 17.5183448,2.42337103 14.5986207,2.42337103 C13.6059145,2.42337103 12.6132083,2.55963456 11.6205021,2.83213241 Z M17.4307531,11.5329103 C17.7227255,12.1557751 18.0536471,12.9441006 18.4234593,13.8978869 C19.863876,13.7616234 21.4307752,13.6935062 23.1242152,13.6935062 C24.3310539,13.6935062 25.5281408,13.7227034 26.7154759,13.7810979 C26.559767,11.1338716 25.6059807,8.77864697 23.8541462,6.71536552 C22.5889421,8.60346353 20.4478208,10.2093118 17.4307531,11.5329103 Z M19.1533903,15.9416938 C20.1460966,18.822498 20.8176331,21.7811421 21.168,24.8176552 C22.7057311,23.824949 23.9612125,22.549993 24.9344441,20.9928166 C25.907705,19.4356401 26.4916498,17.7519228 26.6862786,15.9416938 C25.2653657,15.8443794 23.9709352,15.7957076 22.8030455,15.7957076 C21.7324995,15.7957076 20.515938,15.8443794 19.1533903,15.9416938 Z" id="Shape"></path>
                                </g>
                            </g>
                        </g>
                    </g>
                </g>
            </g>
        </g>
    </g>
</svg>