<?xml version="1.0" encoding="UTF-8"?>
<svg width="56px" height="56px" viewBox="0 0 56 56" version="1.1" xmlns="http://www.w3.org/2000/svg" xmlns:xlink="http://www.w3.org/1999/xlink">
    <!-- Generator: Sketch 57.1 (83088) - https://sketch.com -->
    <title>UI / Icons / White_bg / Html</title>
    <desc>Created with Sketch.</desc>
    <defs>
        <rect id="path-1" x="0" y="0" width="56" height="56" rx="17.5"></rect>
    </defs>
    <g id="Mika_Web" stroke="none" stroke-width="1" fill="none" fill-rule="evenodd">
        <g id="Skill---Section-Copy" transform="translate(-628.000000, -698.000000)">
            <g id="Landing---Section" transform="translate(0.000000, 145.000000)">
                <g id="Skills" transform="translate(492.000000, 394.000000)">
                    <g id="UI-Skills" transform="translate(136.000000, 159.000000)">
                        <g id="UI-/-Icons-/-White_bg-/-Html">
                            <g>
                                <mask id="mask-2" fill="white">
                                    <use xlink:href="#path-1"></use>
                                </mask>
                                <use id="BG" fill="#FFFFFF" xlink:href="#path-1"></use>
                                <g id="vuejs" mask="url(#mask-2)">
                                    <g transform="translate(16.800000, 13.300000)" id="Group-2">
                                        <g>
                                            <g id="Group-6" fill="#E44E25" fill-rule="nonzero">
                                                <polyline id="Path" points="5.86197757e-14 -1.75193193e-13 1.58909072 -1.75193193e-13 1.58909072 1.76289007 3.39450743 1.76289007 3.39450743 -1.75193193e-13 4.9833599 -1.75193193e-13 4.9833599 5.07734735 3.39450743 5.07734735 3.39450743 3.03237581 1.58909072 3.03237581 1.58909072 5.07734735 5.86197757e-14 5.07734735 5.86197757e-14 -1.75193193e-13"></polyline>
                                                <polyline id="Path" points="5.63329085 -1.75193193e-13 10.5442244 -1.75193193e-13 10.5442244 1.19872713 8.88318388 1.19872713 8.88318388 5.07734735 7.29433141 5.07734735 7.29433141 1.19872713 5.63329085 1.19872713 5.63329085 -1.75193193e-13"></polyline>
                                                <polyline id="Path" points="11.1943936 -1.75193193e-13 13.2886818 -1.75193193e-13 14.0864434 3.10075198 14.8762239 -1.75193193e-13 16.9720606 -1.75193193e-13 16.9720606 5.07734735 15.6719605 5.07734735 15.6719605 1.22767383 14.6912271 5.07734735 13.4849952 5.07734735 12.4943747 1.22767383 12.4943747 5.07734735 11.1943936 5.07734735 11.1943936 -1.75193193e-13"></polyline>
                                                <polyline id="Path" points="17.9830511 -1.75193193e-13 19.5716653 -1.75193193e-13 19.5716653 3.80809985 22.0996776 3.80809985 22.0996776 5.07734735 17.9830511 5.07734735 17.9830511 -1.75193193e-13"></polyline>
                                            </g>
                                            <polyline id="Path" fill="#E44E25" fill-rule="nonzero" points="11.4432976 19.9776905 11.4314113 19.9776905 3.72968695 19.9776905 2.88249992 10.7029207 2.8 9.8 11.4314113 9.8 11.4432976 9.8 20.0659922 9.8 19.9836684 10.7029207 19.8265927 12.4091811 19.7573879 13.1656798 19.746382 13.1656798 11.4432976 13.1656798 11.4314113 13.1656798 6.56708555 13.1656798 6.88211727 16.6121867 11.4314113 16.6121867 11.4432976 16.6121867 18.5147823 16.6121867 19.4436769 16.6121867 19.3595041 17.5159879 18.5496489 26.3765852 18.4977893 26.9452799 11.4433856 28.8543123 11.4433856 28.8548405 11.4273611 28.8592429 4.36661805 26.9452799 3.88385703 21.6607065 5.47856203 21.6607065 7.34401117 21.6607065 7.58948586 24.3449035 11.4282416 25.3570904 11.4314113 25.356298 11.4314113 25.3558577 15.2756259 24.3428784 15.675975 19.9776905 11.4432976 19.9776905"></polyline>
                                        </g>
                                    </g>
                                </g>
                            </g>
                        </g>
                    </g>
                </g>
            </g>
        </g>
    </g>
</svg>