<?xml version="1.0" encoding="UTF-8"?>
<svg width="56px" height="56px" viewBox="0 0 56 56" version="1.1" xmlns="http://www.w3.org/2000/svg" xmlns:xlink="http://www.w3.org/1999/xlink">
    <!-- Generator: Sketch 57.1 (83088) - https://sketch.com -->
    <title>UI / Icons / White_bg / Js</title>
    <desc>Created with Sketch.</desc>
    <defs>
        <rect id="path-1" x="0" y="0" width="56" height="56" rx="17.5"></rect>
    </defs>
    <g id="Mika_Web" stroke="none" stroke-width="1" fill="none" fill-rule="evenodd">
        <g id="Skill---Section-Copy" transform="translate(-756.000000, -700.000000)">
            <g id="Landing---Section" transform="translate(0.000000, 145.000000)">
                <g id="Skills" transform="translate(492.000000, 394.000000)">
                    <g id="UI-Skills" transform="translate(136.000000, 159.000000)">
                        <g id="UI-/-Icons-/-White_bg-/-Js" transform="translate(128.000000, 2.000000)">
                            <g id="UI-/-Icons-/-White_bg-/-Css3-Copy">
                                <g id="ic_halfround_skill_css">
                                    <mask id="mask-2" fill="white">
                                        <use xlink:href="#path-1"></use>
                                    </mask>
                                    <use id="BG" fill="#FFFFFF" xlink:href="#path-1"></use>
                                    <g id="Group-4" mask="url(#mask-2)">
                                        <g transform="translate(21.700000, 11.200000)">
                                            <g id="Group-3" stroke-width="1" fill="none" fill-rule="evenodd">
                                                <path d="M9.61847115,5.24054355 C9.65748269,5.56001174 9.73672488,5.80288641 9.85606226,5.96958995 C10.0504427,6.24020161 10.3279935,6.37578904 10.6892566,6.37578904 C10.95868,6.37578904 11.1659288,6.30496819 11.3114094,6.16374889 C11.4567544,6.02238879 11.5296302,5.85836039 11.5296302,5.67222687 C11.5296302,5.49594914 11.4652882,5.33783421 11.336198,5.19802288 C11.206295,5.05807075 10.8732069,4.92572165 10.3363918,4.80182037 C9.45781947,4.59386334 8.83119663,4.31973175 8.45679423,3.97858084 C8.07846358,3.63757072 7.88950144,3.20335305 7.88950144,2.67620942 C7.88950144,2.32830025 7.98689483,2.00052504 8.18100433,1.69217981 C8.37538474,1.38383457 8.66770036,1.1412415 9.05754483,0.964682171 C9.44766022,0.788545236 9.98284976,0.70040637 10.6625716,0.70040637 C11.495766,0.70040637 12.1310581,0.863589989 12.5684478,1.19023882 C13.0061085,1.51702845 13.2664564,2.03699144 13.3500332,2.75040939 L11.3478472,2.87600023 C11.3043656,2.54597227 11.2129323,2.30563195 11.0742246,2.15554244 C10.9353815,2.00503054 10.7434393,1.92998579 10.4988044,1.92998579 C10.2977867,1.92998579 10.146346,1.98193985 10.044618,2.08598877 C9.94261911,2.19017848 9.89168738,2.31633251 9.89168738,2.46501405 C9.89168738,2.57356847 9.91539231,2.67156312 9.96280216,2.7591388 C10.0083156,2.84896722 10.2081143,2.93245979 10.5626046,3.01046128 C11.4387387,3.20870333 12.0664452,3.40863494 12.4455886,3.6113825 C12.824732,3.81384845 13.1003864,4.06517094 13.2730937,4.36520915 C13.4455302,4.66538817 13.5316806,5.001048 13.5316806,5.37232945 C13.5316806,5.80809589 13.4161361,6.20964868 13.1846405,6.57769181 C12.9534159,6.94573493 12.6302161,7.225076 12.2151767,7.41515183 C11.7998663,7.60550925 11.2764615,7.70040637 10.6449623,7.70040637 C9.535978,7.70040637 8.76780288,7.4803408 8.34084327,7.04035045 C7.91388365,6.60021931 7.67249976,6.04125558 7.61642067,5.36331845 L9.61847115,5.24054355 Z" id="Path" fill="#F4D932" fill-rule="nonzero"></path>
                                                <g id="J" fill-rule="nonzero">
                                                    <path d="M5.25,1.75 L2.8,1.75 C2.22010101,1.75 1.75,2.22010101 1.75,2.8 L1.75,5.6 C1.75,6.17989899 2.22010101,6.65 2.8,6.65 L4.2,6.65 C4.77989899,6.65 5.25,6.17989899 5.25,5.6 L5.25,1.75 Z" id="Combined-Shape" stroke="#F4D932" stroke-width="2.1"></path>
                                                    <rect id="Rectangle" fill="#FFFFFF" x="0" y="0" width="4.2" height="4.2"></rect>
                                                </g>
                                            </g>
                                            <polygon id="Path-2" fill="#F4D932" fill-rule="nonzero" points="-9.79494263e-14 11.2816895 13.3452455 11.2816895 13.3452455 26.5228381 7 30.8 -1.11743947e-13 26.5228381 -1.88631652e-14 21.7027928 3.5 21.7027928 3.5 25.1163854 7 26.7861189 9.85590497 25.1163854 9.85590497 14.7065201 -1.88631652e-14 14.7065201"></polygon>
                                        </g>
                                    </g>
                                </g>
                            </g>
                        </g>
                    </g>
                </g>
            </g>
        </g>
    </g>
</svg>