<?xml version="1.0" encoding="UTF-8"?>
<svg width="56px" height="56px" viewBox="0 0 56 56" version="1.1" xmlns="http://www.w3.org/2000/svg" xmlns:xlink="http://www.w3.org/1999/xlink">
    <!-- Generator: Sketch 57.1 (83088) - https://sketch.com -->
    <title>UI / Icons / White_bg / LinkedIn</title>
    <desc>Created with Sketch.</desc>
    <defs>
        <rect id="path-1" x="0" y="0" width="56" height="56" rx="25"></rect>
    </defs>
    <g id="Mika_Web" stroke="none" stroke-width="1" fill="none" fill-rule="evenodd">
        <g id="Skill---Section-Copy" transform="translate(-692.000000, -2846.000000)">
            <g id="Contact-Me---Section" transform="translate(1.000000, 2544.000000)">
                <g id="Group" transform="translate(411.000000, 94.000000)">
                    <g id="icons" transform="translate(168.000000, 208.000000)">
                        <g id="UI-/-Icons-/-White_bg-/-LinkedIn" transform="translate(112.000000, 0.000000)">
                            <g>
                                <g id="ic_halfround_skill_css">
                                    <mask id="mask-2" fill="white">
                                        <use xlink:href="#path-1"></use>
                                    </mask>
                                    <use id="BG" fill="#FFFFFF" xlink:href="#path-1"></use>
                                </g>
                                <g id="linkedin-icon-1" transform="translate(13.300000, 14.000000)" fill="#1CC0D6" fill-rule="nonzero">
                                    <path d="M0,3.23219175 C0,2.29530584 0.327912879,1.52239042 0.983710531,0.913445493 C1.63950818,0.304472462 2.49207605,0 3.54135791,0 C4.57192117,0 5.40571422,0.299778758 6.04279326,0.899392486 C6.69859092,1.51772482 7.0265038,2.32341185 7.0265038,3.31650979 C7.0265038,4.21590228 6.70797833,4.96537728 6.07089928,5.56499101 C5.41510163,6.18332334 4.55317446,6.49248951 3.48514588,6.49248951 L3.45703987,6.49248951 C2.42647661,6.49248951 1.59268356,6.18332334 0.955604516,5.56499101 C0.31852547,4.94665867 0,4.16904955 0,3.23219175 Z M0.365378197,27.824955 L0.365378197,9.05013689 L6.60491357,9.05013689 L6.60491357,27.824955 L0.365378197,27.824955 Z M10.0619534,27.824955 L16.3014888,27.824955 L16.3014888,17.3414114 C16.3014888,16.6855856 16.3764475,16.1796773 16.5263369,15.8236865 C16.7886504,15.1866075 17.1868283,14.6478995 17.7208426,14.2075907 C18.2548569,13.7672537 18.9247075,13.5470993 19.7304227,13.5470993 C21.8290145,13.5470993 22.8782964,14.9617594 22.8782964,17.7911076 L22.8782964,27.824955 L29.1178317,27.824955 L29.1178317,17.0603512 C29.1178317,14.287215 28.4620341,12.1839576 27.1504107,10.7505508 C25.8387873,9.31714403 24.1056017,8.60044065 21.9507979,8.60044065 C19.5336806,8.60044065 17.6505775,9.64036321 16.3014888,11.7202083 L16.3014888,11.7764204 L16.2733828,11.7764204 L16.3014888,11.7202083 L16.3014888,9.05013689 L10.0619534,9.05013689 C10.0994188,9.64972251 10.1181655,11.5140788 10.1181655,14.6432339 C10.1181655,17.7723609 10.0994188,22.1662586 10.0619534,27.824955 Z" id="Shape"></path>
                                </g>
                            </g>
                        </g>
                    </g>
                </g>
            </g>
        </g>
    </g>
</svg>