<?xml version="1.0" encoding="UTF-8"?>
<svg width="40px" height="44px" viewBox="0 0 40 44" version="1.1" xmlns="http://www.w3.org/2000/svg" xmlns:xlink="http://www.w3.org/1999/xlink">
    <!-- Generator: Sketch 57.1 (83088) - https://sketch.com -->
    <title>UI / Technologies / Node</title>
    <desc>Created with Sketch.</desc>
    <g id="UI-/-Technologies-/-Node" stroke="none" stroke-width="1" fill="none" fill-rule="evenodd">
        <g id="nodejs-icon" fill="#8CC84B" fill-rule="nonzero">
            <path d="M17.9855848,0.467885841 C19.0655874,-0.150300109 20.4722901,-0.153092417 21.551362,0.467885841 C26.980074,3.53539123 32.4104924,6.59808765 37.8382736,9.66745457 C38.8591724,10.2425149 39.5420469,11.378674 39.5317703,12.5550112 L39.5317703,31.0103051 C39.5392546,32.2353527 38.7888994,33.3986592 37.7118441,33.9606887 C32.3009719,37.0112851 26.8928919,40.0656046 21.4829505,43.116201 C20.3806093,43.746487 18.9456733,43.6979318 17.8777707,43.0159882 C16.2555949,42.0756009 14.6306268,41.1398675 13.0082959,40.200411 C12.6767869,40.0027777 12.303083,39.8454777 12.0689945,39.524052 C12.2759356,39.2451315 12.6459164,39.2103827 12.9465549,39.0886071 C13.6236895,38.8732891 14.2455986,38.5276634 14.8676627,38.1922762 C15.0249627,38.0846173 15.2170115,38.1258814 15.3677961,38.222216 C16.7549526,39.0175584 18.129854,39.8360148 19.5216644,40.6237559 C19.8185798,40.7951726 20.1192183,40.5675995 20.3730081,40.4261226 C25.6827367,37.4251672 30.9989808,34.4355362 36.3077786,31.43365 C36.5044812,31.3390218 36.6132261,31.1302192 36.5972479,30.9147461 C36.600971,24.8267392 36.5981787,18.7376464 36.5991094,12.6496394 C36.621603,12.4051574 36.4801261,12.1803766 36.2590684,12.0803189 C30.8669666,9.04368401 25.4776572,6.00239529 20.0864862,2.96498477 C19.8952958,2.83354355 19.6429662,2.83317374 19.4513913,2.964054 C14.0602203,6.00239529 8.67184167,9.04647632 3.2806707,12.0829561 C3.06038863,12.1831689 2.91255143,12.4042266 2.9387681,12.6496394 C2.93969887,18.7376464 2.9387681,24.8267392 2.9387681,30.9156769 C2.91962167,31.1310041 3.03661849,31.33547 3.23196044,31.4280654 C4.67061953,32.2438847 6.11114017,33.0539643 7.55073003,33.8669913 C8.36174036,34.3035221 9.35750839,34.5628964 10.2510469,34.22844 C11.0395637,33.9456413 11.5922855,33.1409912 11.5772381,32.3037642 C11.5846842,26.2512816 11.573515,20.1978683 11.5828227,14.1463165 C11.5631214,13.8776344 11.8179971,13.6556459 12.079233,13.6809318 C12.7704843,13.676278 13.4626664,13.6716241 14.1539178,13.6827934 C14.4424563,13.676278 14.6410204,13.9655921 14.6053409,14.2362909 C14.6025486,20.3270901 14.612787,26.4180445 14.600687,32.5088437 C14.6025486,34.1321054 13.9356524,35.8983953 12.4341663,36.6926517 C10.5844175,37.6508788 8.29813779,37.4476608 6.47072738,36.5288364 C4.88872981,35.7392337 3.37902199,34.8073785 1.82510262,33.9614643 C0.745255096,33.4025374 -0.00137701921,32.234577 0.00609074458,31.0104602 L0.00609074458,12.5550112 C-0.00510009645,11.3543188 0.704921759,10.1975277 1.75762185,9.63084431 C7.16756334,6.57776585 12.5765741,3.52236046 17.9855848,0.467885841 Z" id="Path"></path>
            <path d="M22.7052057,13.2520023 C25.0647059,13.1001318 27.5906587,13.1620279 29.7138986,14.3244037 C31.3577923,15.2151499 32.2691706,17.0846001 32.2981796,18.9109246 C32.2522616,19.1572682 31.9947488,19.2931605 31.7595744,19.2762515 C31.0749936,19.2753208 30.3902576,19.2855592 29.7056768,19.2715977 C29.4152768,19.2827669 29.2464973,19.0150156 29.2100421,18.7582784 C29.0133396,17.8844412 28.5367857,17.0189808 27.7142959,16.5974975 C26.4517073,15.96535 24.9877623,15.9971513 23.6109994,16.0103372 C22.6059236,16.0637013 21.5251453,16.1507282 20.6736465,16.7417667 C20.0199362,17.1894668 19.8213721,18.0932438 20.0546849,18.8211054 C20.2746568,19.3437323 20.8779504,19.5123567 21.3715684,19.6677952 C24.2150686,20.4114798 27.2282791,20.3374837 30.0174845,21.3161876 C31.172259,21.7151774 32.3019027,22.4908185 32.6971694,23.6998878 C33.2142117,25.3203572 32.9875694,27.2572881 31.8346565,28.5581934 C30.8996987,29.6287332 29.5379832,30.2113948 28.1798356,30.5278564 C26.3730573,30.9307243 24.4980225,30.9409628 22.6631659,30.7621 C20.9378299,30.5653974 19.1423759,30.1121127 17.810445,28.9365511 C16.6714936,27.9476087 16.1152038,26.4067201 16.1704295,24.9195059 C16.1836154,24.6683533 16.4336821,24.4932135 16.6742859,24.5138456 C17.3636757,24.508261 18.0530655,24.5063994 18.7424553,24.5147764 C19.0178079,24.4950751 19.2219567,24.7330418 19.2360733,24.9925713 C19.3632785,25.8251444 19.6761721,26.6989817 20.4021722,27.1925997 C21.8032902,28.0965318 23.5613583,28.0346356 25.1656944,28.0599215 C26.4948329,28.0009728 27.9868561,27.9831331 29.0715126,27.104642 C29.6437806,26.6035778 29.8133358,25.7652649 29.6586729,25.0440738 C29.4911345,24.4351956 28.854178,24.1514661 28.3071959,23.9659327 C25.5001508,23.0779788 22.4532775,23.4001801 19.6733798,22.3960351 C18.544822,21.9972005 17.453495,21.2431222 17.0199116,20.0836939 C16.4149116,18.4427476 16.6921257,16.41305 17.9658835,15.1560461 C19.20784,13.9057126 21.0006568,13.4241946 22.7052057,13.2518472 L22.7052057,13.2520023 Z" id="Path"></path>
        </g>
    </g>
</svg>