<?xml version="1.0" encoding="UTF-8"?>
<svg width="50px" height="38px" viewBox="0 0 50 38" version="1.1" xmlns="http://www.w3.org/2000/svg" xmlns:xlink="http://www.w3.org/1999/xlink">
    <!-- Generator: Sketch 57.1 (83088) - https://sketch.com -->
    <title>UI / Technologies / Sass</title>
    <desc>Created with Sketch.</desc>
    <g id="UI-/-Technologies-/-Sass" stroke="none" stroke-width="1" fill="none" fill-rule="evenodd">
        <g id="sass-1" fill="#CF649A" fill-rule="nonzero">
            <path d="M43.0423969,21.5335538 C41.2941974,21.5434236 39.7803933,21.9635225 38.5107512,22.5890292 C38.0419603,21.6606878 37.5731694,20.8495128 37.4951352,20.2437455 C37.4072369,19.5401604 37.2998057,19.110094 37.4072369,18.2697984 C37.5145705,17.4293073 38.0028944,16.2371214 38.0028944,16.1394013 C37.9930303,16.0514532 37.8953655,15.6214845 36.8895159,15.6117125 C35.8836664,15.6019404 35.0143522,15.8071528 34.9166875,16.0709972 C34.8190227,16.3348416 34.6236931,16.9407066 34.4967289,17.5661156 C34.3209323,18.484685 32.4848345,21.7387662 31.4398214,23.4488689 C31.0979947,22.7843718 30.8050004,22.1980509 30.7463038,21.7288964 C30.6585032,21.025409 30.5509743,20.5953426 30.6585032,19.755047 C30.7659345,18.914556 31.2542583,17.7224678 31.2542583,17.6247476 C31.2444919,17.5367995 31.1468271,17.1068308 30.1409776,17.0970588 C29.1349327,17.0872868 28.2658139,17.2924991 28.1681491,17.5563435 C28.0704843,17.820188 27.963053,18.445597 27.7481905,19.0514619 C27.5429968,19.6573269 25.1013774,25.0905675 24.4665564,26.5075097 C24.1442626,27.2306389 23.8611324,27.8071878 23.6559387,28.1980684 C23.4508427,28.588949 23.6461723,28.2273845 23.6266393,28.2664725 C23.4508427,28.5987211 23.3531779,28.7843894 23.3531779,28.7843894 L23.3531779,28.7942591 C23.2164472,29.0385595 23.0699501,29.2729901 23.0014871,29.2729901 C22.9526547,29.2729901 22.8549899,28.6182651 23.02102,27.7193374 C23.3823797,25.8332407 24.2613627,22.8919617 24.2516939,22.7844696 C24.2516939,22.7356095 24.4176263,22.2175949 23.6851405,21.9538482 C22.9721876,21.6900038 22.7183569,22.1297445 22.6596604,22.1297445 C22.6010615,22.1297445 22.5522291,22.2860968 22.5522291,22.2860968 C22.5522291,22.2860968 23.3433138,18.9734812 21.0384251,18.9734812 C19.5929864,18.9734812 17.6006249,20.5467757 16.6142107,21.983262 C15.9891561,22.3252825 14.6609152,23.048314 13.2545424,23.8204009 C12.7173861,24.1135614 12.1606969,24.4262659 11.6333071,24.7096543 L11.5259735,24.5921947 C8.7327609,21.61173 3.56629423,19.5009746 3.78115674,15.4944483 C3.85928856,14.038418 4.3671454,10.1980159 13.7039957,5.54653649 C21.3511477,1.73545044 27.4747292,2.7810561 28.5391776,5.10679579 C30.0529816,8.42928106 25.2674076,14.6051949 17.3175924,15.4944483 C14.2899843,15.8364688 12.6979508,14.663827 12.2976229,14.2240863 C11.8776644,13.7648015 11.8190655,13.7452575 11.6628019,13.8332056 C11.4088734,13.9700139 11.5651371,14.3804385 11.6628019,14.6247389 C11.8971973,15.2403759 12.8738451,16.3348416 14.5341463,16.8820745 C15.9892538,17.3609032 19.5443493,17.6247476 23.8415995,15.963505 C28.656473,14.0970501 32.4165669,8.91788184 31.3129549,4.58887897 C30.1898099,0.181699977 22.8844847,-1.26455832 15.979585,1.18821757 C11.8678002,2.6540199 7.41428642,4.94067153 4.21088175,7.94068029 C0.401955472,11.4976939 -0.203566141,14.6051949 0.0503622773,15.8951009 C0.939209408,20.4977202 7.27755573,23.497729 9.81683992,25.7159765 C9.68987571,25.7842829 9.57267798,25.852687 9.46524673,25.9114168 C8.19560463,26.5367281 3.3611982,29.0677778 2.15015497,31.7452123 C0.782848101,34.7745371 2.36501748,36.9537943 3.41979706,37.2469548 C6.6818006,38.1557522 10.021936,36.5238256 11.8287343,33.8365214 C13.6256685,31.1492171 13.4109037,27.6606076 12.5807531,26.067769 L12.551356,26.009137 L13.5475367,25.422816 C14.1922219,25.0417074 14.827043,24.6899149 15.3836345,24.3868847 C15.0712049,25.23705 14.8464782,26.2435676 14.7293782,27.7093699 C14.5926475,29.4293424 15.2958339,31.6572642 16.2236493,32.5367456 C16.6338413,32.9177565 17.1221652,32.9276262 17.424926,32.9276262 C18.4992385,32.9276262 18.9875624,32.0382751 19.5247187,30.9732231 C20.1888392,29.673545 20.7748278,28.1686547 20.7748278,28.1686547 C20.7748278,28.1686547 20.042342,32.2435851 22.0444699,32.2435851 C22.7769558,32.2435851 23.5094416,31.2956996 23.8415018,30.8070988 L23.8415018,30.8168709 C23.8415018,30.8168709 23.8610348,30.7875548 23.9001007,30.7191507 C23.9410795,30.6585242 23.9801643,30.5966375 24.0172984,30.5335801 L24.0172984,30.5140361 C24.3102927,30.0058913 24.9646467,28.8430214 25.9412945,26.9179344 C27.2010725,24.4358425 28.4122134,21.3283415 28.4122134,21.3283415 C28.4122134,21.3283415 28.5294111,22.0905587 28.8907708,23.3413767 C29.1055356,24.0841476 29.5743265,24.8951272 29.9356862,25.6866604 C29.6426919,26.0970851 29.4668953,26.3317112 29.4668953,26.3317112 L29.4766618,26.3414832 C29.242364,26.6541877 28.9785714,26.9865339 28.7052077,27.3186847 C27.709027,28.5108706 26.5175167,29.8692785 26.361253,30.2601591 C26.17569,30.7193461 26.2147559,31.0613667 26.5761156,31.3350808 C26.8398105,31.5305211 27.3086014,31.5695115 27.8066917,31.5305211 C28.7052077,31.4717913 29.3302623,31.2471327 29.6427895,31.1102268 C30.1311134,30.9343305 30.6878026,30.6704861 31.2249589,30.2796054 C32.2016067,29.556574 32.7973618,28.5305124 32.7387629,27.1624302 C32.7094635,26.409985 32.4653016,25.6673118 32.1625408,24.9637267 C32.2504391,24.8366905 32.338435,24.7095566 32.4262357,24.5728461 C33.9693391,22.3154128 35.1608494,19.8334186 35.1608494,19.8334186 C35.1608494,19.8334186 35.2780471,20.5956358 35.6394068,21.8464538 C35.8248722,22.4816348 36.196096,23.1755456 36.5281563,23.8595867 C35.0827176,25.0420006 34.1744352,26.4100827 33.8619079,27.3091082 C33.2856857,28.9703508 33.7349437,29.722796 34.5846272,29.8986923 C34.9654222,29.9768684 35.5124426,29.8009721 35.922537,29.6250758 C36.4303938,29.4589516 37.0456819,29.1754654 37.6122353,28.7553665 C38.5888831,28.0322373 39.5264649,27.0257197 39.4776325,25.6674096 C39.4483331,25.0420006 39.282303,24.4263636 39.057674,23.8400427 C40.2882502,23.3318979 41.8800884,23.0387374 43.9018469,23.2830378 C48.2479294,23.7911826 49.1073795,26.5078029 48.941447,27.6413567 C48.7754169,28.7750082 47.8671345,29.4003195 47.564276,29.5957598 C47.2615152,29.7814281 47.1638504,29.8499299 47.1931499,29.9866404 C47.2322158,30.1919505 47.3689465,30.1820807 47.6326414,30.1430904 C47.994001,30.0843606 49.9179971,29.2147489 49.9961289,27.1236353 C50.1133267,24.4359402 47.564276,21.5043355 43.0423969,21.5335538 L43.0423969,21.5335538 Z M9.52384559,32.8397758 C8.08817338,34.4130703 6.06651251,35.0091632 5.20706247,34.5010184 C4.2792471,33.9635576 4.6405091,31.6475899 6.40833922,29.9765752 C7.48265176,28.9602856 8.87925807,28.0221721 9.79730697,27.4456232 C10.002403,27.318587 10.3149303,27.1330165 10.6860564,26.9081624 C10.7446553,26.869172 10.7837212,26.8495303 10.7837212,26.8495303 C10.8520866,26.8104422 10.9302184,26.7615821 11.0083502,26.7127221 C11.6627042,29.0970938 11.0376496,31.1883052 9.52384559,32.8397758 L9.52384559,32.8397758 Z M20.0228091,25.6964325 C19.5247187,26.9179344 18.4699391,30.0547514 17.8351181,29.8788551 C17.2880977,29.7322749 16.9561351,27.3576751 17.7275891,25.0123914 C18.1182483,23.8298798 18.9483989,22.4228073 19.4367227,21.8754767 C20.2279051,20.9959953 21.0872575,20.7028348 21.3022176,21.0643994 C21.556146,21.5335538 20.3353363,24.9342152 20.0228091,25.6964325 Z M28.6856747,29.839767 C28.4708122,29.9473569 28.2754827,30.0254353 28.1875844,29.9669009 C28.119219,29.9278129 28.275385,29.7812327 28.275385,29.7812327 C28.275385,29.7812327 29.359464,28.6183628 29.789189,28.080902 C30.033351,27.7682952 30.3263453,27.4067306 30.6388726,26.9962082 L30.6388726,27.1134724 C30.6389703,28.5205449 29.2911963,29.4586584 28.6856747,29.839767 Z M35.3658478,28.3153326 C35.2095841,28.1980684 35.2292147,27.8365038 35.7565069,26.7029501 C35.9617006,26.2534373 36.4303938,25.5009921 37.2410115,24.787635 C37.3386763,25.0807955 37.3973728,25.3640862 37.3875086,25.6280283 C37.3778398,27.3869911 36.1277307,28.0417162 35.3658478,28.3153326 Z" id="Shape"></path>
        </g>
    </g>
</svg>