<?xml version="1.0" encoding="UTF-8"?>
<svg width="136px" height="136px" viewBox="0 0 136 136" version="1.1" xmlns="http://www.w3.org/2000/svg" xmlns:xlink="http://www.w3.org/1999/xlink">
    <!-- Generator: Sketch 57.1 (83088) - https://sketch.com -->
    <title>UI / Icons / Profile / Ninja</title>
    <desc>Created with Sketch.</desc>
    <defs>
        <circle id="path-1" cx="67.6" cy="67.6" r="67.6"></circle>
    </defs>
    <g id="Mika_Web" stroke="none" stroke-width="1" fill="none" fill-rule="evenodd">
        <g id="Skill---Section-Copy" transform="translate(-653.000000, -539.000000)">
            <g id="Landing---Section" transform="translate(0.000000, 145.000000)">
                <g id="Skills" transform="translate(492.000000, 394.000000)">
                    <g id="UI-/-Icons-/-Profile-/-Ninja" transform="translate(161.000000, 0.000000)">
                        <g id="Ninja">
                            <mask id="mask-2" fill="white">
                                <use xlink:href="#path-1"></use>
                            </mask>
                            <use id="Mask" fill="#FFFFFF" fill-rule="nonzero" xlink:href="#path-1"></use>
                            <g mask="url(#mask-2)">
                                <g transform="translate(20.238086, 30.031955)">
                                    <path d="M25.4983431,-7.10542736e-15 L27.6320278,10.3339029 C33.0572621,6.22225768 39.9107862,3.76804503 47.3619143,3.76804503 C64.9521836,3.76804503 79.2119143,17.4457459 79.2119143,34.318045 C79.2119143,47.1435432 70.9722166,58.1231073 59.2933379,62.6521599 C74.6727315,66.8009933 85.7119143,78.1580154 85.7119143,91.518045 C85.7119143,108.390344 68.1055121,122.068045 46.3869143,122.068045 C24.6683165,122.068045 7.06191432,108.390344 7.06191432,91.518045 C7.06191432,83.8268941 10.7204286,76.7995633 16.7592579,71.4290337 L1.27711753,58.4383896 C-0.235374392,57.1692581 -0.432657063,54.9143069 0.836474351,53.401815 C2.10560577,51.889323 4.36055702,51.6920404 5.87304894,52.9611718 L22.734169,67.1095676 C26.292379,65.0253479 30.3208335,63.3998119 34.6738944,62.3460999 C23.3972628,57.6448687 15.5119143,46.8647316 15.5119143,34.318045 C15.5119143,25.6782808 19.25101,17.8761837 25.2617256,12.3193326 L15.44405,8.09479497 L22.6197822,6.21077245 L25.4983431,-7.10542736e-15 Z" id="Body" fill="#293037"></path>
                                    <g id="Eyes" stroke-width="1" fill="none" transform="translate(15.511914, 28.468045)">
                                        <path d="M3.2674113,0 L60.6369838,0 C61.3549656,-2.11353078e-05 61.9370049,0.582018153 61.9370049,1.3 C61.9370049,1.64589852 61.7991568,1.9775357 61.553967,2.22151875 C52.1553878,11.5738396 42.5010003,16.25 32.5908045,16.25 C22.6945674,16.25 12.6282655,11.5870033 2.39189863,2.26100983 C1.86113039,1.77748944 1.82286557,0.955244318 2.30640993,0.424497917 C2.55275824,0.154101885 2.90162243,6.71943262e-17 3.2674113,0 Z" id="Path" fill="#F9EDD4" fill-rule="nonzero"></path>
                                        <g transform="translate(20.150000, 3.900000)" fill="#293037" fill-rule="nonzero">
                                            <circle id="Oval" cx="3.25" cy="3.25" r="3.25"></circle>
                                            <circle id="Oval-Copy-2" cx="19.5" cy="3.25" r="3.25"></circle>
                                        </g>
                                    </g>
                                </g>
                            </g>
                        </g>
                    </g>
                </g>
            </g>
        </g>
    </g>
</svg>