<?xml version="1.0" encoding="UTF-8"?>
<svg width="190px" height="55px" viewBox="0 0 190 55" version="1.1" xmlns="http://www.w3.org/2000/svg" xmlns:xlink="http://www.w3.org/1999/xlink">
    <!-- Generator: Sketch 57.1 (83088) - https://sketch.com -->
    <title>accenture-2</title>
    <desc>Created with Sketch.</desc>
    <g id="Symbols" stroke="none" stroke-width="1" fill="none" fill-rule="evenodd">
        <g id="UI-/-Companies-/-Accenture" fill-rule="nonzero">
            <g id="accenture-2" transform="translate(0.000000, -0.000000)">
                <path d="M13.8620139,42.8923701 C13.8620139,46.0609823 12.5604085,50.321419 8.71690599,50.321419 C6.78989927,50.321419 5.65559304,49.3285726 5.65559304,47.3551425 C5.65646895,43.6303261 11.1120877,42.8923701 13.8620139,42.8923701 M19.374567,53.7996661 L19.374567,36.1912043 C19.374567,30.4824469 15.6282908,28.5098927 10.3798252,28.5098927 C5.24698003,28.5098927 0.972528758,30.690476 0.972528758,36.3545619 L6.59500882,36.3545619 C6.59500882,33.9081393 7.89486244,32.56449 10.3802632,32.56449 C13.2326711,32.56449 13.8624519,34.6333945 13.8624519,37.0771894 L13.8624519,39.5201084 C8.25179664,39.6751448 0.0453757528,40.4568964 0.0453757528,47.8850694 C0.0453757528,52.0907615 3.37252804,54.3760163 7.3150086,54.3760163 C10.0185114,54.3760163 12.5100435,53.4913451 13.7625979,50.9455064 L13.8628898,50.9455064 L13.8628898,53.8001041 L19.374567,53.8001041 M36.4675546,37.5449265 L42.5967498,37.5449265 C42.5967498,31.4656583 39.2271158,28.5098927 33.1951468,28.5098927 C25.7801125,28.5098927 21.8709166,33.1785045 21.8709166,40.3434658 C21.8709166,48.965945 26.2872657,54.3760163 35.1125185,54.3760163 C37.5580652,54.3760163 39.9966046,53.9652135 42.3374798,53.232513 L42.3374798,49.7012732 C40.9824437,50.1668205 39.5801084,50.321419 38.1887219,50.321419 C31.6290159,50.321419 28.0009878,45.5433183 28.0009878,39.3138311 C28.0009878,36.3558758 29.0914984,32.56449 32.7295995,32.56449 C35.7401095,32.56449 36.4675546,35.0034674 36.4675546,37.5449265 M58.616745,37.5449265 L64.7525095,37.5449265 C64.7525095,31.4656583 61.3688609,28.5098927 55.3469649,28.5098927 C47.9214197,28.5098927 44.0240486,33.1785045 44.0240486,40.3434658 C44.0240486,48.965945 48.4355802,54.3760163 57.2669644,54.3760163 C59.7059417,54.3760163 62.1536782,53.9652135 64.4853563,53.232513 L64.4853563,49.7012732 C63.1390794,50.1668205 61.7332404,50.321419 60.3322189,50.321419 C53.790907,50.321419 50.1444848,45.5433183 50.1444848,39.3138311 C50.1444848,36.3558758 51.2450684,32.56449 54.8766001,32.56449 C57.8879861,32.56449 58.616745,35.0034674 58.616745,37.5449265 M81.218782,36.4522261 L72.1811204,36.4522261 C72.44477,33.9571904 74.358638,32.1843442 76.8326519,32.1843442 C79.4927971,32.1843442 81.218782,33.8060955 81.218782,36.4522261 M86.6730869,39.9405462 L86.6730869,38.5320795 C86.6730869,32.5084317 83.5570294,28.5098927 77.27017,28.5098927 C69.8993693,28.5098927 66.6685674,33.1320811 66.6685674,40.1446337 C66.6685674,48.2906167 70.3548436,54.3768922 79.1319213,54.3768922 C81.4732344,54.3768922 83.8224308,54.119812 86.0349849,53.3888633 L86.0349849,49.3916383 C84.5792189,49.9071126 82.8755698,50.320981 81.3186359,50.320981 C75.7127982,50.320981 72.0129453,45.1837563 72.0129453,39.9409842 L86.6730869,39.9409842 M103.757753,53.7996661 L109.536146,53.7996661 L109.536146,36.6615691 C109.536146,32.4081397 107.54257,28.5098927 102.824469,28.5098927 C99.2914772,28.5098927 96.8060765,30.541133 95.5009674,33.7001101 L95.3989237,33.7001101 L95.3989237,29.0669729 L89.6218451,29.0669729 L89.6218451,53.801418 L95.3989237,53.801418 L95.3989237,43.103465 C95.3989237,39.7723711 97.0631568,33.9098911 101.202718,33.9098911 C101.79571,33.9098911 102.447827,33.9571904 102.8779,34.3811318 C103.851476,35.3109126 103.757753,38.4764591 103.757753,39.6751448 L103.757753,53.7996661 M121.514682,33.0786505 L128.858768,33.0786505 L128.858768,29.0669729 L121.514682,29.0669729 L121.514682,20.8710629 L115.773954,23.2066826 L115.773954,29.065659 L110.936291,29.065659 L110.936291,33.0773366 L115.773954,33.0773366 L115.773954,47.5657994 C115.773954,52.7130971 118.292201,54.3751404 123.34709,54.3751404 C124.912345,54.3751404 126.510009,54.2249215 128.059498,53.9643376 L128.059498,49.9057987 C127.191031,50.1199592 126.312491,50.3187913 125.414681,50.3187913 C121.820814,50.3187913 121.513806,47.6713468 121.513806,44.7571871 L121.513806,33.0786505 M145.539639,53.7996661 L151.305768,53.7996661 L151.305768,29.0665349 L145.539639,29.0665349 L145.539639,39.7714952 C145.539639,43.1021511 143.875405,48.9663829 139.712195,48.9663829 C139.149421,48.9663829 138.463144,48.9247771 138.047962,48.506967 C137.055991,47.5675512 137.168108,44.3976252 137.168108,43.2094503 L137.168108,29.0660969 L131.410738,29.0660969 L131.410738,46.2199604 C131.410738,50.4825868 133.367525,54.3764543 138.105334,54.3764543 C141.59453,54.3764543 144.136865,52.2944111 145.44066,49.1875507 L145.539639,49.1875507 L145.539639,53.7996661 M160.709999,42.9484285 C160.709999,37.1297441 162.88883,34.5383581 168.804303,34.5383581 L168.804303,28.5098927 C164.657297,28.5098927 162.723721,30.2253667 160.807225,33.6427379 L160.709561,33.6427379 L160.709561,29.065659 L154.933796,29.065659 L154.933796,53.8001041 L160.709561,53.8001041 L160.709561,42.9484285 M184.516853,36.4522261 L175.475688,36.4522261 C175.73671,33.9571904 177.656271,32.1843442 180.1443,32.1843442 C182.801817,32.1843442 184.516853,33.8060955 184.516853,36.4522261 M189.968968,39.9405462 L189.968968,38.5320795 C189.968968,32.5084317 186.856414,28.5098927 180.564737,28.5098927 C173.191309,28.5098927 169.969266,33.1320811 169.969266,40.1446337 C169.969266,48.2906167 173.65817,54.3768922 182.428678,54.3768922 C184.769116,54.3768922 187.110429,54.119812 189.342691,53.3888633 L189.342691,49.3916383 C187.890429,49.9071126 186.174955,50.320981 184.627656,50.320981 C179.002548,50.320981 175.315834,45.1837563 175.315834,39.9409842 L189.96853,39.9409842" id="Shape" fill="#231F20"></path>
                <path d="M110.929722,0.0624560396 L110.929722,4.12887817 C110.929722,4.12887817 122.444025,8.59077464 124.092492,9.23238028 C122.444025,9.8643509 110.929722,14.3039116 110.929722,14.3039116 L110.929722,18.3646403 L128.863147,11.0788031 L128.863147,7.35179691 L110.929722,0.0624560396" id="Path" fill="#27AAE1"></path>
            </g>
        </g>
    </g>
</svg>