<?xml version="1.0" encoding="UTF-8"?>
<svg width="188px" height="70px" viewBox="0 0 188 70" version="1.1" xmlns="http://www.w3.org/2000/svg" xmlns:xlink="http://www.w3.org/1999/xlink">
    <!-- Generator: Sketch 57.1 (83088) - https://sketch.com -->
    <title>air-arabia-logo</title>
    <desc>Created with Sketch.</desc>
    <g id="Symbols" stroke="none" stroke-width="1" fill="none" fill-rule="evenodd">
        <g id="UI-/-Companies-/-Air-Arabia" fill="#E81142" fill-rule="nonzero">
            <g id="air-arabia-logo">
                <path d="M145.7,21.5 C145.4,22.3 145,23 144.5,23.6 C144,24.2 143.3,24.7 142.4,25 C141.6,25.3 140.6,25.5 139.4,25.5 C138.5,25.5 137.8,25.5 137.3,25.4 C136.8,25.3 136.4,25.2 136.2,25.2 L136.2,17.9 C136.2,16.3 136.6,15 137.4,14 C138.2,13 139.4,12.4 141,12.4 C142.6,12.4 143.8,13 144.7,14.2 C145.6,15.4 146,16.9 146,18.8 C146.1,19.7 146,20.7 145.7,21.5 L145.7,21.5 Z M149.1,10.3 C148.2,9.4 147.2,8.7 146,8.3 C144.8,7.8 143.6,7.6 142.3,7.6 C141.3,7.6 140.5,7.7 139.8,8 C139.1,8.2 138.5,8.5 137.9,8.8 C137.4,9.1 137,9.4 136.7,9.7 C136.4,10 136.3,10.2 136.2,10.2 L136.2,0.5 L130.4,2.2 L130.4,29.4 C130.6,29.4 130.9,29.5 131.4,29.5 C131.9,29.6 132.5,29.6 133.2,29.7 C133.9,29.8 134.7,29.8 135.6,29.9 C136.5,30 137.5,30 138.4,30 C142.9,30 146.3,29 148.5,26.9 C150.8,24.8 151.9,21.8 151.9,18.1 C151.9,16.4 151.6,14.9 151.1,13.6 C150.8,12.3 150,11.2 149.1,10.3 L149.1,10.3 Z M119.6,19.8 C119.6,21.4 119.2,22.7 118.4,23.7 C117.6,24.7 116.4,25.3 114.8,25.3 C113.2,25.3 112,24.7 111.1,23.5 C110.2,22.3 109.8,20.8 109.8,18.9 C109.8,17.9 109.9,16.9 110.2,16.1 C110.5,15.3 110.9,14.6 111.4,14 C111.9,13.4 112.6,12.9 113.5,12.6 C114.3,12.3 115.3,12.1 116.5,12.1 C117.4,12.1 118.1,12.1 118.6,12.2 C119.1,12.3 119.5,12.4 119.7,12.4 L119.7,19.8 L119.6,19.8 Z M122.5,8.6 C121.7,8.4 120.7,8.2 119.6,8 C118.4,7.8 117.1,7.7 115.6,7.7 C113.8,7.7 112.1,8 110.6,8.5 C109.1,9.1 107.9,9.9 106.9,10.9 C105.9,11.9 105.1,13.1 104.5,14.6 C104,16 103.7,17.8 103.7,19.6 C103.7,21.3 104,22.8 104.5,24.1 C105,25.4 105.7,26.5 106.6,27.4 C107.5,28.3 108.5,29 109.7,29.4 C110.9,29.8 112.1,30.1 113.5,30.1 C114.4,30.1 115.3,30 116,29.7 C116.7,29.5 117.3,29.2 117.9,28.9 C118.4,28.6 118.8,28.3 119.1,28 C119.4,27.7 119.6,27.5 119.6,27.4 L119.6,29.4 L125.4,29.4 L125.4,9.8 C125.3,9.7 125,9.6 124.5,9.3 C124,9 123.3,8.8 122.5,8.6 L122.5,8.6 Z M103.7,8.5 C103.1,8.2 102.3,7.9 101.1,7.7 C100.4,7.6 99.6,7.5 98.9,7.5 C97.6,7.5 96.5,7.6 95.4,7.8 C94.3,8 93.4,8.3 92.6,8.6 C91.8,8.9 91.1,9.2 90.6,9.4 C90.1,9.7 89.8,9.9 89.7,9.9 L89.7,29.2 L95.5,29.2 L95.5,13.2 C95.7,13.1 96.2,12.9 96.8,12.6 C97.4,12.4 98.3,12.2 99.5,12.2 C99.9,12.2 100.3,12.2 100.7,12.3 C101.1,12.4 101.5,12.4 101.9,12.5 L102,12.5 C102.6,11.1 103.1,9.8 103.7,8.4 C103.6,8.6 103.7,8.5 103.7,8.5 L103.7,8.5 Z M181.8,19.8 C181.8,21.4 181.4,22.7 180.6,23.7 C179.8,24.7 178.6,25.3 177,25.3 C175.4,25.3 174.2,24.7 173.3,23.5 C172.4,22.3 172,20.8 172,18.9 C172,17.9 172.1,16.9 172.4,16.1 C172.7,15.3 173.1,14.6 173.6,14 C174.1,13.4 174.8,12.9 175.7,12.6 C176.5,12.3 177.5,12.1 178.7,12.1 C179.6,12.1 180.3,12.1 180.8,12.2 C181.3,12.3 181.7,12.4 181.9,12.4 L181.8,19.8 Z M186.7,9.3 C186.2,9.1 185.6,8.8 184.8,8.6 C184,8.4 183,8.2 181.9,8 C180.7,7.8 179.4,7.7 177.9,7.7 C176.1,7.7 174.4,8 172.9,8.5 C171.4,9.1 170.2,9.9 169.2,10.9 C168.2,11.9 167.4,13.1 166.8,14.6 C166.3,16 166,17.8 166,19.6 C166,21.3 166.3,22.8 166.8,24.1 C167.3,25.4 168,26.5 168.9,27.4 C169.8,28.3 170.8,29 172,29.4 C173.2,29.8 174.4,30.1 175.8,30.1 C176.7,30.1 177.6,30 178.3,29.7 C179,29.5 179.6,29.2 180.2,28.9 C180.7,28.6 181.1,28.3 181.4,28 C181.7,27.7 181.9,27.5 181.9,27.4 L181.9,29.4 L187.7,29.4 L187.7,9.8 C187.5,9.7 187.2,9.5 186.7,9.3 L186.7,9.3 Z M159.1,-3.55271368e-15 C158.2,-3.55271368e-15 157.5,0.3 156.8,0.9 C156.2,1.5 155.8,2.2 155.8,3.1 C155.8,4 156.1,4.7 156.8,5.4 C157.4,6 158.2,6.3 159.1,6.3 C160,6.3 160.8,6 161.4,5.4 C162,4.8 162.3,4 162.3,3.1 C162.3,2.2 162,1.5 161.4,0.9 C160.8,0.3 160,-3.55271368e-15 159.1,-3.55271368e-15 L159.1,-3.55271368e-15 Z M156.3,29.4 L162.1,29.4 L162.1,7.7 L156.3,9.4 L156.3,29.4 Z M66.8,17.6 C67.3,16.3 67.8,14.9 68.3,13.6 C68.8,12.2 69.3,11 69.7,9.9 C70.1,8.9 70.5,7.9 70.8,7 C71.1,6.2 71.4,5.6 71.5,5.3 C71.6,5.6 71.9,6.1 72.2,7 C72.6,8 73,8.9 73.3,9.9 L74.7,13.6 C75.2,15 75.7,16.3 76.2,17.6 L66.8,17.6 Z M82.8,18.6 C82.1,16.8 81.4,15.1 80.7,13.4 C80.1,11.9 79.4,10.3 78.8,8.7 C78.3,7.4 77.8,6.2 77.2,5 C76.8,4.2 76.5,3.3 76.1,2.5 C75.5,1.1 75.2,0.5 75.2,0.5 L67.8,0.5 C67.8,0.5 67.5,1.1 66.9,2.5 C66.5,3.3 66.1,4.1 65.8,5 C65.3,6.2 64.7,7.5 64.2,8.7 C63.6,10.1 63,11.7 62.3,13.4 C61.6,15.1 60.9,16.9 60.2,18.6 C59.5,20.4 58.8,22.2 58.1,24.1 C57.4,25.9 56.8,27.7 56.2,29.4 L62.3,29.4 L64.7,23 L78.3,23 L80.7,29.4 L86.8,29.4 C86.2,27.6 85.5,25.8 84.8,24.1 C84.2,22.2 83.5,20.4 82.8,18.6 L82.8,18.6 Z M36.6,-1.0658141e-14 C35.7,-1.0658141e-14 35,0.3 34.3,0.9 C33.7,1.5 33.4,2.2 33.4,3.1 C33.4,4 33.7,4.7 34.3,5.4 C35,6 35.7,6.3 36.6,6.3 C37.5,6.3 38.3,6 38.9,5.4 C39.5,4.8 39.8,4 39.8,3.1 C39.8,2.2 39.5,1.5 38.9,0.9 C38.3,0.3 37.5,-1.0658141e-14 36.6,-1.0658141e-14 L36.6,-1.0658141e-14 Z M33.7,29.4 L39.5,29.4 L39.5,7.7 L33.7,9.4 L33.7,29.4 Z M10.5,17.6 C11,16.3 11.5,14.9 12,13.6 C12.5,12.2 13,11 13.4,9.9 C13.8,8.8 14.2,7.8 14.5,7 C14.8,6.2 15.1,5.6 15.2,5.3 C15.3,5.6 15.6,6.1 15.9,7 C16.3,8 16.7,8.9 17,9.9 C17.4,11 17.9,12.3 18.4,13.6 C18.9,15 19.4,16.3 19.9,17.6 L10.5,17.6 Z M26.5,18.6 C25.8,16.8 25.1,15.1 24.4,13.4 C23.7,11.7 23.1,10.2 22.5,8.7 C22,7.5 21.5,6.2 21,5 C20.6,4.2 20.3,3.3 19.9,2.5 C19.6,1.8 19.3,1.2 19,0.5 L11.6,0.5 C11.6,0.5 11.3,1.1 10.7,2.5 C10.4,3.1 10.1,3.9 9.6,5 C9,6.2 8.5,7.5 8,8.7 C7.4,10.1 6.8,11.7 6.1,13.4 C5.4,15.1 4.7,16.9 4,18.6 C3.3,20.4 2.6,22.2 1.9,24.1 C1.2,25.9 0.6,27.7 1.0658141e-14,29.4 L6.1,29.4 L8.5,23 L22.1,23 L24.5,29.4 L30.6,29.4 C30,27.6 29.3,25.8 28.7,24.1 C27.9,22.2 27.2,20.4 26.5,18.6 L26.5,18.6 Z M57.3,12.7 C57.9,11.3 58.5,9.9 59,8.6 C59,8.6 59,8.5 59.1,8.5 C58.5,8.2 57.7,7.9 56.5,7.7 C55.8,7.6 55,7.5 54.3,7.5 C53,7.5 51.9,7.6 50.8,7.8 C49.7,8 48.8,8.3 48,8.6 C47.2,8.9 46.5,9.2 46,9.4 C45.5,9.7 45.2,9.9 45.1,9.9 L45.1,29.2 L50.9,29.2 L50.9,13.2 C51.1,13.1 51.6,12.9 52.2,12.6 C52.8,12.4 53.7,12.2 54.9,12.2 C55.3,12.2 55.7,12.2 56.1,12.3 C56.5,12.4 56.9,12.4 57.3,12.5 C57.2,12.7 57.2,12.7 57.3,12.7 L57.3,12.7 Z M111.5,53.5 C111.5,54.8 111.2,55.9 110.5,56.8 C109.8,57.7 108.8,58.1 107.5,58.1 C106.1,58.1 105.1,57.6 104.3,56.6 C103.5,55.6 103.2,54.3 103.2,52.7 C103.2,51.9 103.3,51 103.5,50.3 C103.7,49.6 104.1,49 104.5,48.5 C105,48 105.5,47.6 106.2,47.3 C106.9,47 107.8,46.9 108.7,46.9 C109.4,46.9 110,46.9 110.5,47 C111,47.1 111.3,47.1 111.4,47.2 L111.5,53.5 Z M143.5,43.4 L138.6,44.8 L138.6,57.8 L132.9,57.8 C132.3,57.8 131.8,57.7 131.4,57.5 C131,57.3 130.7,57.1 130.5,56.7 C130.3,56.4 130.2,55.9 130.1,55.4 C130,54.8 130,54.2 130,53.7 L130,43.4 L125.1,44.8 L125.1,53.8 C125.1,54.5 125.1,55 125,55.5 C124.9,56 124.8,56.4 124.6,56.8 C124.4,57.1 124.1,57.4 123.7,57.6 C123.3,57.8 122.8,57.9 122.2,57.9 L116.5,57.9 L116.5,45 C116.4,44.9 116.1,44.8 115.7,44.6 C115.3,44.4 114.8,44.2 114.1,44 C113.4,43.8 112.6,43.6 111.6,43.5 C110.6,43.3 109.5,43.3 108.2,43.3 C106.6,43.3 105.2,43.5 104,44 C102.8,44.5 101.7,45.1 100.8,46 C99.9,46.9 99.3,47.9 98.8,49.1 C98.3,50.3 98.1,51.8 98.1,53.3 C98.1,54.7 98.3,56 98.8,57.1 C99.2,58.2 99.8,59.1 100.6,59.9 C101.3,60.6 102.2,61.2 103.2,61.6 C104.2,62 105.3,62.2 106.4,62.2 C107.2,62.2 107.9,62.1 108.5,61.9 C109.1,61.7 109.6,61.5 110.1,61.2 C110.5,60.9 110.9,60.7 111.1,60.5 C111.3,60.3 111.5,60.1 111.5,60 L111.5,62 L116.4,62 L123.2,62 C124.1,62 125,61.8 125.8,61.5 C126.6,61.2 127.2,60.5 127.7,59.6 C128.2,60.5 128.8,61.2 129.5,61.5 C130.2,61.8 131,62 131.9,62 L143.4,62 L143.5,43.4 Z M127.8,63.7 C127,63.7 126.4,64 125.9,64.5 C125.4,65 125.1,65.7 125.1,66.4 C125.1,67.2 125.4,67.8 125.9,68.3 C126.4,68.8 127.1,69.1 127.8,69.1 C128.6,69.1 129.2,68.8 129.8,68.3 C130.3,67.8 130.6,67.1 130.6,66.4 C130.6,65.6 130.3,65 129.8,64.5 C129.2,64 128.5,63.7 127.8,63.7 L127.8,63.7 Z M63.7,58 C61.9,58.5 59.2,58 59,57.9 L59,47.8 C59,47.8 60.9,46.4 63.3,46.9 C65.7,47.4 67.3,49.2 67.3,52.7 C67.3,55.4 66,57.3 63.7,58 L63.7,58 Z M88.3,57.9 L85,57.9 C84.4,57.9 83.9,57.8 83.5,57.6 C83.1,57.4 82.8,57.2 82.6,56.8 C82.4,56.5 82.3,56 82.2,55.5 C82.1,55 82.1,54.4 82.1,53.8 L82.1,36.7 L77.2,38.1 L77.2,53.8 C77.2,54.5 77.2,55 77.1,55.5 C77,56 76.9,56.4 76.7,56.8 C76.5,57.1 76.2,57.4 75.8,57.6 C75.4,57.8 74.9,57.9 74.3,57.9 L71,57.9 C71.8,56.5 72.2,54.7 72.2,52.6 C72.2,47.2 69.1,43.8 64.6,43.3 C62,43 59.5,43.9 58.8,44.2 L58.8,36.7 L54,38.1 L54,57.8 L52,57.8 C51.4,57.8 50.9,57.7 50.5,57.5 C50.1,57.3 49.8,57.1 49.6,56.7 C49.4,56.4 49.3,55.9 49.2,55.4 C49.1,54.8 49.1,54.2 49.1,53.7 L49.1,43.4 L44.2,44.8 L44.2,53.8 C44.2,54.5 44.2,55 44.1,55.5 C44,56 43.9,56.4 43.7,56.8 C43.5,57.1 43.2,57.4 42.8,57.6 C42.4,57.8 41.9,57.9 41.3,57.9 L35.6,57.9 L35.6,43.4 L30.7,44.8 L30.7,61.8 C30.7,62.9 30.4,63.6 29.9,64 C29.4,64.4 28.7,64.6 27.8,64.6 C27.3,64.6 26.8,64.5 26.2,64.4 C25.7,64.3 25.4,64.2 25.3,64.1 L24.1,67.4 C24.1,67.4 24.3,67.5 24.6,67.6 C24.9,67.7 25.2,67.8 25.6,67.9 C26,68 26.5,68.1 27,68.2 C27.5,68.3 28.1,68.3 28.6,68.3 C29.5,68.3 30.4,68.2 31.2,68 C32,67.8 32.8,67.4 33.4,66.8 C34,66.3 34.5,65.5 34.9,64.6 C35.3,63.7 35.5,62.6 35.5,61.2 L35.5,62 L42.3,62 C43.2,62 44.1,61.8 44.9,61.5 C45.7,61.2 46.3,60.5 46.8,59.6 C47.3,60.5 47.9,61.2 48.6,61.5 C49.3,61.8 50.1,62 51,62 L75.4,62 C76.3,62 77.2,61.8 78,61.5 C78.8,61.2 79.4,60.5 79.9,59.6 C80.4,60.5 81,61.2 81.7,61.5 C82.4,61.8 83.2,62 84.1,62 L93.2,62 L93.2,36.7 L88.3,38.1 L88.3,57.9 Z M120.4,63.7 C119.6,63.7 119,64 118.5,64.5 C118,65 117.7,65.7 117.7,66.4 C117.7,67.2 118,67.8 118.5,68.3 C119,68.8 119.7,69.1 120.4,69.1 C121.2,69.1 121.8,68.8 122.4,68.3 C122.9,67.8 123.2,67.1 123.2,66.4 C123.2,65.6 122.9,65 122.4,64.5 C121.8,64 121.2,63.7 120.4,63.7 L120.4,63.7 Z M135.1,63.7 C134.3,63.7 133.7,64 133.1,64.5 C132.6,65 132.3,65.7 132.3,66.4 C132.3,67.2 132.6,67.8 133.1,68.3 C133.6,68.8 134.3,69.1 135.1,69.1 C135.9,69.1 136.5,68.8 137,68.3 C137.5,67.8 137.8,67.1 137.8,66.4 C137.8,65.6 137.5,65 137,64.5 C136.5,64 135.9,63.7 135.1,63.7 L135.1,63.7 Z M182.7,38.2 L182.7,62 L187.6,62 L187.6,36.7 L182.7,38.2 Z M174,55.5 C174,56.6 173.7,57.3 173.2,57.7 C172.7,58.1 172,58.3 171.1,58.3 L162.6,58.3 C162.4,58.1 162.2,58 162,57.8 C161.5,57.3 161.2,56.7 160.9,56 C160.6,55.3 160.5,54.4 160.5,53.4 C160.5,51.5 161,50.1 161.9,49 C162.8,47.9 164.1,47.5 165.6,47.5 C166.3,47.5 166.9,47.6 167.4,47.8 C167.9,48 168.4,48.2 168.8,48.4 L170.7,44.7 C170.4,44.4 169.7,44.1 168.9,43.8 C168,43.5 166.8,43.3 165.1,43.3 C163.8,43.3 162.5,43.5 161.3,44 C160.2,44.5 159.1,45.1 158.3,46 C157.4,46.9 156.7,47.9 156.2,49.2 C155.7,50.4 155.4,51.9 155.4,53.4 C155.4,55 155.7,56.5 156.2,57.7 C156.3,57.9 156.4,58.1 156.5,58.3 L152,58.3 L152,43.4 L147.1,44.8 L147.1,61.8 C147.1,62.9 146.8,63.6 146.3,64 C145.8,64.4 145.1,64.6 144.2,64.6 C143.7,64.6 143.2,64.5 142.7,64.4 C142.4,64.3 142.1,64.2 141.8,64.1 L140.6,67.4 C140.6,67.4 140.8,67.5 141.1,67.6 C141.4,67.7 141.7,67.8 142.1,67.9 C142.5,68 143,68.1 143.5,68.2 C144,68.3 144.6,68.3 145.1,68.3 C146,68.3 146.9,68.2 147.7,68 C148.5,67.8 149.3,67.4 149.9,66.8 C150.5,66.3 151,65.5 151.4,64.6 C151.8,63.7 152,62.6 152,61.2 L152,62 L172,62 C172.9,62 173.8,61.9 174.6,61.7 C175.4,61.5 176.2,61.1 176.8,60.5 C177.4,59.9 177.9,59.2 178.3,58.3 C178.7,57.4 178.9,56.2 178.9,54.9 L178.9,36.7 L174,38.1 L174,55.5 Z M111.4,41.4 C112.2,41.4 112.8,41.1 113.4,40.6 C113.9,40.1 114.2,39.4 114.2,38.7 C114.2,37.9 113.9,37.3 113.4,36.8 C112.9,36.3 112.2,36 111.4,36 C110.6,36 110,36.3 109.5,36.8 C109,37.3 108.7,38 108.7,38.7 C108.7,39.5 109,40.1 109.5,40.6 C110,41.2 110.7,41.4 111.4,41.4 L111.4,41.4 Z M9.2,41.9 C10,41.9 10.6,41.6 11.2,41.1 C11.7,40.6 12,39.9 12,39.2 C12,38.4 11.7,37.8 11.2,37.3 C10.7,36.8 10,36.5 9.2,36.5 C8.4,36.5 7.8,36.8 7.3,37.3 C6.8,37.8 6.5,38.5 6.5,39.2 C6.5,40 6.8,40.6 7.3,41.1 C7.8,41.6 8.4,41.9 9.2,41.9 L9.2,41.9 Z M104.1,41.4 C104.9,41.4 105.5,41.1 106.1,40.6 C106.6,40.1 106.9,39.4 106.9,38.7 C106.9,37.9 106.6,37.3 106.1,36.8 C105.6,36.3 104.9,36 104.1,36 C103.3,36 102.7,36.3 102.2,36.8 C101.7,37.3 101.4,38 101.4,38.7 C101.4,39.5 101.7,40.1 102.2,40.6 C102.7,41.2 103.3,41.4 104.1,41.4 L104.1,41.4 Z M13.5,51.5 C13.5,54.6 13.5,58.2 9.2,58.2 C4.9,58.2 4.9,54.7 4.9,51.5 L4.9,47.3 L1.42108547e-14,48.7 L1.42108547e-14,51.3 L1.42108547e-14,51.8 C1.42108547e-14,53.6 0.3,55.1 0.8,56.4 C1.3,57.8 2,58.9 2.8,59.8 C3.6,60.7 4.6,61.3 5.8,61.7 C6.9,62.1 8.1,62.3 9.4,62.3 C10.6,62.3 11.7,62.1 12.8,61.8 C13.9,61.4 14.9,60.9 15.7,60 C16.5,59.2 17.2,58.1 17.7,56.7 C18.2,55.3 18.5,53.6 18.5,51.6 L18.5,43.5 L13.6,44.9 L13.5,51.5 Z M46.9,63.7 C46.1,63.7 45.5,64 45,64.5 C44.5,65 44.2,65.7 44.2,66.4 C44.2,67.2 44.5,67.8 45,68.3 C45.5,68.8 46.2,69.1 46.9,69.1 C47.7,69.1 48.3,68.8 48.9,68.3 C49.4,67.8 49.7,67.1 49.7,66.4 C49.7,65.6 49.4,65 48.9,64.5 C48.3,64 47.7,63.7 46.9,63.7 L46.9,63.7 Z M27,36.7 L22.1,38.1 L22.1,62 L27,62 L27,36.7 Z M39.5,63.7 C38.7,63.7 38.1,64 37.6,64.5 C37.1,65 36.8,65.7 36.8,66.4 C36.8,67.2 37.1,67.8 37.6,68.3 C38.1,68.8 38.8,69.1 39.5,69.1 C40.3,69.1 40.9,68.8 41.5,68.3 C42,67.8 42.3,67.1 42.3,66.4 C42.3,65.6 42,65 41.5,64.5 C41,64 40.3,63.7 39.5,63.7 L39.5,63.7 Z" id="Shape"></path>
            </g>
        </g>
    </g>
</svg>