<?xml version="1.0" encoding="UTF-8"?>
<svg width="46px" height="50px" viewBox="0 0 46 50" version="1.1" xmlns="http://www.w3.org/2000/svg" xmlns:xlink="http://www.w3.org/1999/xlink">
    <!-- Generator: Sketch 57.1 (83088) - https://sketch.com -->
    <title>angular-icon</title>
    <desc>Created with Sketch.</desc>
    <g id="Symbols" stroke="none" stroke-width="1" fill="none" fill-rule="evenodd">
        <g id="UI-/-Icons-/-White_bg-/-Angular" transform="translate(-17.000000, -15.000000)">
            <g id="UI-/-Icons-/-White_bg-/-Vue">
                <g id="ic_halfround_skill_angular-copy">
                    <g id="angular-icon" transform="translate(17.600000, 16.000000)">
                        <g id="angular">
                            <polygon id="Path" stroke="#FFFFFF" fill="#DD0031" fill-rule="nonzero" points="22.5 0 22.5 0 22.5 0 0.215425532 7.94680851 3.6143617 37.412234 22.5 47.8723404 22.5 47.8723404 22.5 47.8723404 41.3856383 37.412234 44.7845745 7.94680851"></polygon>
                            <polygon id="Path" fill="#C3002F" fill-rule="nonzero" points="22.5 5.31382979 22.5 5.28989362 22.5 29.537234 22.5 47.0130844 41.3856383 37.412234 44.7845745 7.94680851 22.5 0.79914093"></polygon>
                            <path d="M22.5,5.28989362 L8.56914894,36.5265957 L8.56914894,36.5265957 L13.7632979,36.5265957 L13.7632979,36.5265957 L16.5638298,29.537234 L28.3882979,29.537234 L31.1888298,36.5265957 L31.1888298,36.5265957 L36.3829787,36.5265957 L36.3829787,36.5265957 L22.5,5.28989362 L22.5,5.28989362 L22.5,5.28989362 L22.5,5.28989362 L22.5,5.28989362 Z M26.5691489,25.2287234 L18.4308511,25.2287234 L22.5,15.4388298 L26.5691489,25.2287234 Z" id="Shape" fill="#FFFFFF" fill-rule="nonzero"></path>
                        </g>
                    </g>
                </g>
            </g>
        </g>
    </g>
</svg>