<?xml version="1.0" encoding="UTF-8"?>
<svg width="188px" height="40px" viewBox="0 0 188 40" version="1.1" xmlns="http://www.w3.org/2000/svg" xmlns:xlink="http://www.w3.org/1999/xlink">
    <!-- Generator: Sketch 57.1 (83088) - https://sketch.com -->
    <title>cognizants-logo</title>
    <desc>Created with Sketch.</desc>
    <g id="Mika_Web" stroke="none" stroke-width="1" fill="none" fill-rule="evenodd">
        <g id="Skill---Section-Copy" transform="translate(-346.000000, -1691.000000)" fill="#0033A1" fill-rule="nonzero">
            <g id="Companies-&amp;-Technologies---Section" transform="translate(252.000000, 1080.000000)">
                <g id="Company-Panel-/-Cognizant" transform="translate(0.000000, 550.000000)">
                    <g id="Logo" transform="translate(29.000000, 0.000000)">
                        <g id="cognizants-logo" transform="translate(65.000000, 61.000000)">
                            <path d="M107.890045,24.4574186 L119.066388,13.5730034 L108.058556,13.5730034 L108.058556,8.44740745 L126.886269,8.44740745 L126.886269,13.6565471 L115.708501,24.4991905 L127.098925,24.4991905 L127.098925,29.6247864 L107.893842,29.6247864 L107.890045,24.4574186 Z M99.9486465,1.48195134 L105.771548,1.48195134 L105.771548,6.7509007 L99.9486465,6.7509007 L99.9486465,1.48195134 Z M99.8703243,8.51101459 L105.692751,8.51101459 L105.692751,29.6888682 L99.8703243,29.6888682 L99.8703243,8.51101459 Z M29.4467814,19.0360969 C29.4705154,12.982976 34.4090874,8.0928214 40.4830942,8.10797587 C46.557101,8.12367561 51.470515,13.0389883 51.4624554,19.0921092 C51.4548505,25.1452301 46.5290949,30.0482174 40.4546134,30.0482174 C37.5287567,30.05323 34.7212118,28.8935251 32.6518216,26.8251231 C30.5865001,24.7607923 29.4326189,21.9561655 29.447256,19.0360969 L29.4467814,19.0360969 Z M45.8090052,19.0360969 C45.8090052,16.0289984 43.428959,13.5264848 40.4546134,13.5264848 C37.4375465,13.5264848 35.1415188,16.0261503 35.1415188,19.0360969 C35.1415188,22.0460436 37.4375465,24.5457091 40.4550881,24.5457091 C43.428959,24.541437 45.8104292,22.0431955 45.8104292,19.0360969 L45.8090052,19.0360969 Z M77.7383636,8.44740745 L83.5199675,8.44740745 L83.5199675,10.819384 C84.8789767,9.07968137 86.9609237,8.0235181 89.3832163,8.0235181 C94.3996359,8.0235181 97.4171774,11.2427987 97.4171774,16.7058922 L97.4171774,29.6247864 L91.5088339,29.6247864 L91.5088339,17.4687032 C91.5088339,14.6310654 90.1906472,12.9739571 87.5998431,12.9739571 C85.3897325,12.9739571 83.562214,14.4976803 83.562214,18.0487623 L83.562214,29.6119701 L77.7426357,29.6119701 L77.7383636,8.44740745 Z M127.430727,19.0360969 C127.430727,11.5385244 132.959326,8.01687258 137.760241,8.01687258 C140.524778,8.01687258 142.690743,9.03173868 144.092474,10.5165381 L144.092474,8.44693277 L149.912052,8.44693277 L149.912052,29.6247864 L144.092474,29.6247864 L144.092474,27.2528098 C142.690743,28.9046967 140.437437,30.0486758 137.675748,30.0486758 C133.170084,30.0486758 127.430727,26.4961697 127.430727,19.0360969 Z M144.259561,18.9943251 C144.259561,15.8595376 141.964957,13.3176255 138.819727,13.3176255 C135.589529,13.3176255 133.12499,15.7318486 133.12499,18.9943251 C133.12499,22.2563269 135.589529,24.7113725 138.819252,24.7113725 C141.967806,24.7113725 144.262409,22.1272139 144.262409,18.9943251 L144.259561,18.9943251 Z M152.265516,8.44693277 L158.046171,8.44693277 L158.046171,10.819384 C159.406129,9.07968137 161.488076,8.0235181 163.910844,8.0235181 C168.925839,8.0235181 171.943381,11.2427987 171.943381,16.7058922 L171.943381,29.6247864 L166.035037,29.6247864 L166.035037,17.4687032 C166.035037,14.6310654 164.725395,12.9739571 162.125572,12.9739571 C159.915461,12.9739571 158.088417,14.4976803 158.088417,18.0487623 L158.088417,29.6119701 L152.268839,29.6119701 L152.265516,8.44693277 Z M107.890045,29.6247864 L107.890045,24.4574186 L119.066863,13.5730034 L108.059031,13.5730034 L108.059031,8.44740745 L126.886743,8.44740745 L126.886743,13.6565471 L115.708976,24.4991905 L107.890045,29.6247864 Z M23.235592,18.851921 L23.1558457,19.0204325 C21.5481041,22.3973069 18.5917963,24.3340018 15.0445118,24.3340018 C9.90135267,24.3340018 5.87843863,20.2830816 5.87843863,15.1128657 C5.87843863,9.81068876 9.87382122,5.81293277 15.1726754,5.81293277 C18.6060367,5.81293277 21.2153534,7.41497819 22.9275246,10.5772972 L23.0191378,10.7453339 L28.2012207,7.44393367 L28.1138796,7.29915624 C25.422918,2.73036006 20.5840288,0.00332276085 15.1731501,0.00332276085 C6.52685168,0.00284808073 0.00712020183,6.49979491 0.00712020183,15.1152391 C0.00712020183,23.8730874 6.385397,30.2290542 15.1731501,30.2290542 C20.8370333,30.2290542 25.8406365,27.0961654 28.5581802,21.8485767 L28.6398252,21.6905082 L23.235592,18.851921 Z M52.9287323,19.0360969 C52.9287323,11.5385244 58.4573317,8.01687258 63.2587211,8.01687258 C66.0227835,8.01687258 68.1877995,9.16085167 69.5904793,10.7268214 L69.5904793,8.44740745 L75.4100576,8.44740745 L75.4100576,29.0361831 C75.4100576,35.0086084 71.626857,39.8370546 64.4444721,39.8370546 C59.0468844,39.8370546 55.0951724,37.0397646 53.3872733,33.737415 L58.5304324,30.8575307 C59.6345384,33.0600465 61.5854737,34.4575047 64.4373519,34.4575047 C67.5825824,34.4575047 69.5786123,32.0015098 69.5786123,29.2478904 L69.5786123,27.2528098 C68.1764072,28.9046967 65.92405,30.0486758 63.1628358,30.0486758 C58.6657163,30.0486758 52.9287323,26.4961697 52.9287323,19.0360969 L52.9287323,19.0360969 Z M69.7575667,18.9943251 C69.7575667,15.8595376 67.4634377,13.3176255 64.3177325,13.3176255 C61.0880089,13.3176255 58.6234697,15.7318486 58.6234697,18.9943251 C58.6234697,22.2563269 61.0880089,24.7113725 64.3177325,24.7113725 C67.4634377,24.7113725 69.7575667,22.1272139 69.7575667,18.9943251 Z M186.282043,13.6570218 L186.282043,8.44740745 L182.287135,8.44740745 L182.287135,1.4615401 L176.467557,1.4615401 L176.467557,8.44740745 L172.851918,8.44740745 L172.851918,13.6565471 L176.460437,13.6565471 L176.460437,20.4335552 C176.460437,27.3377776 178.670073,29.6243117 185.428094,29.6243117 L186.277771,29.6243117 L186.277771,24.2039394 C182.707702,24.2039394 182.282863,23.6946077 182.282863,20.392258 L182.282863,13.6565471 L186.282043,13.6570218 Z M187.517635,3.98873707 C187.23896,4.26828693 186.86047,4.42541012 186.465744,4.42541012 C186.071019,4.42541012 185.692529,4.26828693 185.413853,3.98873707 C185.12989,3.71342816 184.971921,3.33327304 184.977147,2.93779528 C184.979087,2.26679187 185.43192,1.68093221 186.080779,1.50995747 C186.72979,1.33755953 187.413835,1.6213303 187.750229,2.20251577 C188.085443,2.78307035 187.987391,3.51660764 187.511465,3.98873707 L187.517635,3.98873707 Z M185.561953,2.03875112 C185.318627,2.27505481 185.183922,2.60150832 185.189804,2.94064336 C185.184108,3.28051432 185.317493,3.60804361 185.559105,3.84823175 C185.798736,4.08897023 186.12441,4.22430925 186.464083,4.22430925 C186.803756,4.22430925 187.12943,4.08897023 187.369061,3.84823175 C187.612582,3.6096753 187.747321,3.28149548 187.741684,2.94064336 C187.745475,2.42254594 187.434222,1.95407002 186.955139,1.75679113 C186.475833,1.55891322 185.924467,1.67031161 185.55958,2.03875112 L185.561953,2.03875112 Z M186.435365,2.12134547 C186.585838,2.1132759 186.736787,2.13321247 186.88014,2.17925644 C187.046753,2.24571166 187.149758,2.41279906 187.133145,2.59080411 C187.141936,2.71890075 187.081436,2.84189181 186.974601,2.91311191 C186.902169,2.95474731 186.822099,2.98138328 186.73916,2.99143413 C186.85071,3.00235177 186.952766,3.06026275 187.018272,3.15092665 C187.073361,3.22312152 187.104408,3.31078303 187.107037,3.40155775 L187.107037,3.64222058 C187.107512,3.67070138 187.111784,3.69918219 187.120328,3.72623896 L187.130296,3.7466502 L186.861153,3.7466502 C186.860446,3.74129369 186.860446,3.73586759 186.861153,3.73051108 L186.861153,3.53209479 C186.880759,3.38914587 186.821795,3.24672702 186.706882,3.15947089 C186.605829,3.11714005 186.496215,3.09925041 186.386947,3.10725608 L186.16005,3.10725608 L186.16005,3.7466502 L185.869071,3.7466502 L185.869071,2.12134547 L186.435365,2.12134547 Z M186.744856,2.37624869 C186.63568,2.32878068 186.51606,2.30836943 186.39739,2.31691368 L186.151506,2.31691368 L186.151506,2.90551703 L186.411631,2.90551703 C186.504193,2.91026383 186.596756,2.89792214 186.685046,2.86944134 C186.777811,2.8278243 186.84201,2.74067076 186.85425,2.63973786 C186.86649,2.53880496 186.824984,2.43883254 186.744856,2.37624869 L186.744856,2.37624869 Z" id="Shape"></path>
                        </g>
                    </g>
                </g>
            </g>
        </g>
    </g>
</svg>