<?xml version="1.0" encoding="UTF-8"?>
<svg width="322px" height="262px" viewBox="0 0 322 262" version="1.1" xmlns="http://www.w3.org/2000/svg" xmlns:xlink="http://www.w3.org/1999/xlink">
    <!-- Generator: Sketch 57.1 (83088) - https://sketch.com -->
    <title>UI / first_image_mobile</title>
    <desc>Created with Sketch.</desc>
    <g id="Icons" stroke="none" stroke-width="1" fill="none" fill-rule="evenodd">
        <g id="Artboard" transform="translate(-540.000000, -635.000000)">
            <g id="UI-/-first_image_mobile" transform="translate(540.000000, 635.000000)">
                <path d="M262.221519,260.7 L295.778481,260.7 C295.417143,254.840489 290.550494,250.2 284.6,250.2 L273.4,250.2 C267.449506,250.2 262.582857,254.840489 262.221519,260.7 Z" id="mouse-copy" stroke="#1CC0D6" stroke-width="1.4" fill="#FFFFFF"></path>
                <g id="Cactus-Copy" transform="translate(61.400000, 212.800000)">
                    <path d="M14.2800006,0 C16.5995966,-4.2610288e-16 18.4800007,1.88040413 18.4800007,4.20000017 L18.4800002,9.03 L20.1600006,9.0300002 L20.1600008,7.5600003 C20.1600008,6.16824268 21.2882433,5.0400002 22.6800009,5.0400002 C24.0717585,5.0400002 25.200001,6.16824268 25.200001,7.5600003 L25.200001,9.66000038 C25.200001,12.211556 23.1315565,14.2800006 20.5800008,14.2800006 L18.4800002,14.28 L18.4800007,23.5200009 L10.0800004,23.5200009 L10.0800002,19.32 L6.72000027,19.3200008 C5.32824264,19.3200008 4.20000017,18.1917583 4.20000017,16.8000007 L4.20000017,6.72000027 C4.20000017,5.32824264 5.32824264,4.20000017 6.72000027,4.20000017 C8.11175789,4.20000017 9.24000037,5.32824264 9.24000037,6.72000027 L9.24000017,14.28 L10.0800002,14.28 L10.0800004,4.20000017 C10.0800004,1.88040413 11.9604045,4.2610288e-16 14.2800006,0 Z" id="Combined-Shape" fill="#1CC0D6" fill-rule="nonzero"></path>
                    <path d="M27.8952666,24.2200009 L0.825337273,24.2200009 L4.34720174,45.5056064 C4.49256493,46.3841591 5.25229242,47.0285129 6.1427896,47.0285129 L21.4873589,47.0285129 C22.3440609,47.0285129 23.0847777,46.4310478 23.2661186,45.5937583 L27.8952666,24.2200009 Z" id="Path-4" stroke="#1CC0D6" stroke-width="1.4" fill="#FFFFFF"></path>
                    <path d="M1.26000005,29.8200012 L27.3000011,29.8200012" id="Path-5" stroke="#1CC0D6" stroke-width="1.4" fill-rule="nonzero"></path>
                </g>
                <g id="Mac-with-Text-Copy" fill="#FFFFFF" stroke="#1CC0D6" stroke-width="1.4">
                    <g id="UI-/-Icons-/-Mac">
                        <g id="Mac">
                            <rect id="Rectangle" x="0.7" y="0.7" width="320.6" height="208.6" rx="7"></rect>
                            <rect id="Rectangle" stroke-linecap="square" x="21" y="21" width="280" height="154" rx="7"></rect>
                            <circle id="Oval" cx="161.35" cy="193.55" r="4.55"></circle>
                            <path d="M196.7,254.8 C198.246397,254.8 199.5,256.053603 199.5,257.6 C199.5,259.146397 198.246397,260.4 196.7,260.4 L125.3,260.4 C123.753603,260.4 122.5,259.146397 122.5,257.6 C122.5,256.053603 123.753603,254.8 125.3,254.8 L196.7,254.8 Z M183.665238,210 L190.665238,254.574619 L130.9,254.574619 L137.9,210 L183.665238,210 Z" id="Combined-Shape" fill-rule="nonzero"></path>
                        </g>
                    </g>
                </g>
            </g>
        </g>
    </g>
</svg>