<?xml version="1.0" encoding="UTF-8"?>
<svg width="42px" height="40px" viewBox="0 0 42 40" version="1.1" xmlns="http://www.w3.org/2000/svg" xmlns:xlink="http://www.w3.org/1999/xlink">
    <!-- Generator: Sketch 57.1 (83088) - https://sketch.com -->
    <title>UI / Social / LinkedIn</title>
    <desc>Created with Sketch.</desc>
    <g id="UI-/-Social-/-LinkedIn" stroke="none" stroke-width="1" fill="none" fill-rule="evenodd">
        <g id="linkedin-icon-1" fill="#1CC0D6" fill-rule="nonzero">
            <path d="M0,4.61741678 C0,3.27900834 0.46844697,2.17484345 1.40530076,1.30492213 C2.34215455,0.434960661 3.56010864,0 5.05908273,0 C6.53131596,0 7.72244888,0.428255368 8.63256181,1.28484641 C9.56941559,2.16817831 10.0378626,3.31915979 10.0378626,4.73787113 C10.0378626,6.02271754 9.58282618,7.09339611 8.67271326,7.94998715 C7.73585947,8.83331906 6.50453494,9.27498501 4.97877983,9.27498501 L4.93862838,9.27498501 C3.46639516,9.27498501 2.27526223,8.83331906 1.36514931,7.94998715 C0.455036386,7.06665525 0,5.95578507 0,4.61741678 Z M0.521968853,39.7499358 L0.521968853,12.928767 L9.43559081,12.928767 L9.43559081,39.7499358 L0.521968853,39.7499358 Z M14.3742192,39.7499358 L23.2878412,39.7499358 L23.2878412,24.7734448 C23.2878412,23.8365509 23.3949251,23.1138248 23.6090528,22.6052665 C23.9837862,21.6951536 24.5526118,20.9255707 25.3154894,20.2965581 C26.0783669,19.6675053 27.0352965,19.352999 28.1863181,19.352999 C31.1843064,19.352999 32.6832805,21.373942 32.6832805,25.415868 L32.6832805,39.7499358 L41.5969025,39.7499358 L41.5969025,24.3719303 C41.5969025,20.4103072 40.6600487,17.4056537 38.786301,15.3579297 C36.9125532,13.3102058 34.4365739,12.2863438 31.3582827,12.2863438 C27.9052579,12.2863438 25.2151108,13.7719474 23.2878412,16.7431548 L23.2878412,16.8234577 L23.2476897,16.8234577 L23.2878412,16.7431548 L23.2878412,12.928767 L14.3742192,12.928767 C14.4277411,13.7853179 14.4545221,16.448684 14.4545221,20.9189056 C14.4545221,25.389087 14.4277411,31.6660837 14.3742192,39.7499358 Z" id="Shape"></path>
        </g>
    </g>
</svg>